<svg width="46" height="16" viewBox="0 0 45.9612 16" fill="none" xmlns="http://www.w3.org/2000/svg">
<path d="M6.99454 2.46995L4.43716 9.53006H9.63935L7.08197 2.46995H6.99454ZM2.22951 15.6503H0L5.90164 0H8.17487L14.0765 15.6503H11.847L10.3388 11.4098H3.75957L2.22951 15.6503Z" fill="currentColor"/>
<path d="M17.7922 0V15.6503H15.7812V0H17.7922Z" fill="currentColor"/>
<path d="M21.7532 0V15.6503H19.7422V0H21.7532Z" fill="currentColor"/>
<g transform="translate(3.9612 0)">
<path d="M37.6831 10.2072L41.5082 15.6498H39.1476L36.5028 11.6936L33.9017 15.6498H31.541L35.3224 10.2072L31.6284 4.93945H33.9017L36.5465 8.72088L39.0601 4.93945H41.4208L37.6831 10.2072Z" fill="currentColor"/>
<path d="M19.7422 10.2948C19.7422 8.64814 20.2595 7.28566 21.2941 6.20733C22.3433 5.12901 23.662 4.58984 25.2504 4.58984C26.8387 4.58984 28.1502 5.12901 29.1848 6.20733C30.234 7.28566 30.7586 8.64814 30.7586 10.2948C30.7586 11.956 30.234 13.3185 29.1848 14.3822C28.1502 15.4605 26.8387 15.9997 25.2504 15.9997C23.662 15.9997 22.3433 15.4605 21.2941 14.3822C20.2595 13.3039 19.7422 11.9414 19.7422 10.2948ZM21.7531 10.2948C21.7531 11.446 22.0883 12.3786 22.7586 13.0926C23.4289 13.8066 24.2595 14.1636 25.2504 14.1636C26.2413 14.1636 27.0719 13.8066 27.7422 13.0926C28.4125 12.3786 28.7477 11.446 28.7477 10.2948C28.7477 9.15815 28.4125 8.23284 27.7422 7.51881C27.0573 6.79021 26.2267 6.42591 25.2504 6.42591C24.2741 6.42591 23.4435 6.79021 22.7586 7.51881C22.0883 8.23284 21.7531 9.15815 21.7531 10.2948Z" fill="currentColor"/>
</g>
</svg>
