<svg width="36" height="36" viewBox="0 0 36 36" fill="none" xmlns="http://www.w3.org/2000/svg">
<g clip-path="url(#clip0_195_11928)">
<path d="M8.01953 9.43293C8.01953 8.64177 8.68005 8 9.49449 8H26.5046C27.319 8 27.9795 8.64177 27.9795 9.43293V26.5679C27.9795 27.359 27.319 28 26.5046 28H9.49449C8.68005 28 8.01953 27.359 8.01953 26.5679V9.43293Z" fill="#0A66C2"/>
<path d="M14.0842 24.7372V15.7331H11.0974V24.7372H14.0842ZM12.5916 14.5042C13.6329 14.5042 14.2814 13.8127 14.2814 12.9484C14.2622 12.0649 13.6329 11.3926 12.6117 11.3926C11.5896 11.3926 10.9219 12.0649 10.9219 12.9484C10.9219 13.8127 11.5696 14.5042 12.5724 14.5042H12.5916ZM15.7371 24.7372H18.7239V19.709C18.7239 19.44 18.7431 19.1709 18.8225 18.9789C19.0381 18.4408 19.5295 17.8841 20.3552 17.8841C21.4357 17.8841 21.8678 18.7098 21.8678 19.9203V24.7364H24.8546V19.5741C24.8546 16.8086 23.3812 15.5219 21.4165 15.5219C19.8053 15.5219 19.0983 16.4239 18.7047 17.0384H18.7247V15.7331H15.7371C15.7764 16.5781 15.7371 24.7372 15.7371 24.7372Z" fill="white"/>
</g>
<defs>
<clipPath id="clip0_195_11928">
<rect width="20" height="20" fill="white" transform="translate(8 8)"/>
</clipPath>
</defs>
</svg>
