<svg width="36" height="36" viewBox="0 0 36 36" fill="none" xmlns="http://www.w3.org/2000/svg">
<g clip-path="url(#clip0_195_11791)">
<path fill-rule="evenodd" clip-rule="evenodd" d="M15.3329 8C14.2273 8.00082 13.3326 8.89623 13.3334 9.99959C13.3326 11.103 14.2281 11.9984 15.3337 11.9992H17.334V10.0004C17.3349 8.89704 16.4393 8.00163 15.3329 8C15.3337 8 15.3337 8 15.3329 8ZM15.3329 13.3333H10.0003C8.89476 13.3341 7.99919 14.2296 8 15.3329C7.99837 16.4363 8.89394 17.3317 9.99951 17.3333H15.3329C16.4385 17.3325 17.334 16.4371 17.3332 15.3337C17.334 14.2296 16.4385 13.3341 15.3329 13.3333Z" fill="#36C5F0"/>
<path fill-rule="evenodd" clip-rule="evenodd" d="M28.0012 15.3329C28.002 14.2296 27.1064 13.3341 26.0009 13.3333C24.8953 13.3341 23.9997 14.2296 24.0005 15.3329V17.3333H26.0009C27.1064 17.3325 28.002 16.4371 28.0012 15.3329ZM22.6678 15.3329V9.99959C22.6686 8.89704 21.7739 8.00163 20.6683 8C19.5627 8.00082 18.6672 8.89623 18.668 9.99959V15.3329C18.6663 16.4363 19.5619 17.3317 20.6675 17.3333C21.7731 17.3325 22.6686 16.4371 22.6678 15.3329Z" fill="#2EB67D"/>
<path fill-rule="evenodd" clip-rule="evenodd" d="M20.6644 28.0002C21.77 27.9993 22.6655 27.1039 22.6647 26.0006C22.6655 24.8972 21.77 24.0018 20.6644 24.001H18.6641V26.0006C18.6632 27.1031 19.5588 27.9985 20.6644 28.0002ZM20.6644 22.666H25.9978C27.1034 22.6652 27.9989 21.7698 27.9981 20.6664C27.9997 19.5631 27.1042 18.6676 25.9986 18.666H20.6652C19.5596 18.6668 18.6641 19.5622 18.6649 20.6656C18.6641 21.7698 19.5588 22.6652 20.6644 22.666Z" fill="#ECB22E"/>
<path fill-rule="evenodd" clip-rule="evenodd" d="M8 20.6666C7.99918 21.7699 8.89475 22.6654 10.0003 22.6662C11.1059 22.6654 12.0015 21.7699 12.0007 20.6666V18.667H10.0003C8.89475 18.6678 7.99918 19.5632 8 20.6666ZM13.3334 20.6666V25.9999C13.3318 27.1033 14.2273 27.9987 15.3329 28.0003C16.4385 27.9995 17.334 27.1041 17.3332 26.0007V20.6682C17.3349 19.5649 16.4393 18.6694 15.3337 18.6678C14.2273 18.6678 13.3326 19.5632 13.3334 20.6666Z" fill="#E01E5A"/>
</g>
<defs>
<clipPath id="clip0_195_11791">
<rect width="20" height="20" fill="white" transform="translate(8 8)"/>
</clipPath>
</defs>
</svg>
