<svg width="372" height="24" viewBox="0 0 372 24" fill="none" xmlns="http://www.w3.org/2000/svg">
<g clip-path="url(#clip0_154_17047)">
<g clip-path="url(#clip1_154_17047)">
<g opacity="0.5">
<rect width="4" height="12" transform="translate(3.48438 -6.90039) rotate(45)" fill="#FDBA74"/>
</g>
<g opacity="0.5">
<rect width="4" height="33.4756" transform="translate(17.1289 -8.54199) rotate(45)" fill="#FDBA74"/>
</g>
<g opacity="0.5">
<rect width="4" height="12" transform="translate(15.4844 5.09961) rotate(45)" fill="#FDBA74"/>
</g>
</g>
<g clip-path="url(#clip2_154_17047)">
<g opacity="0.5">
<rect width="4" height="12" transform="translate(15.4844 -6.90039) rotate(45)" fill="#FDBA74"/>
</g>
<g opacity="0.5">
<rect width="4" height="33.4756" transform="translate(29.1289 -8.54199) rotate(45)" fill="#FDBA74"/>
</g>
<g opacity="0.5">
<rect width="4" height="12" transform="translate(27.4844 5.09961) rotate(45)" fill="#FDBA74"/>
</g>
</g>
<g clip-path="url(#clip3_154_17047)">
<g opacity="0.5">
<rect width="4" height="12" transform="translate(27.4844 -6.90039) rotate(45)" fill="#FDBA74"/>
</g>
<g opacity="0.5">
<rect width="4" height="33.4756" transform="translate(41.1289 -8.54199) rotate(45)" fill="#FDBA74"/>
</g>
<g opacity="0.5">
<rect width="4" height="12" transform="translate(39.4844 5.09961) rotate(45)" fill="#FDBA74"/>
</g>
</g>
<g clip-path="url(#clip4_154_17047)">
<g opacity="0.5">
<rect width="4" height="12" transform="translate(39.4844 -6.90039) rotate(45)" fill="#FDBA74"/>
</g>
<g opacity="0.5">
<rect width="4" height="33.4756" transform="translate(53.1289 -8.54199) rotate(45)" fill="#FDBA74"/>
</g>
<g opacity="0.5">
<rect width="4" height="12" transform="translate(51.4844 5.09961) rotate(45)" fill="#FDBA74"/>
</g>
</g>
<g clip-path="url(#clip5_154_17047)">
<g opacity="0.5">
<rect width="4" height="12" transform="translate(51.4844 -6.90039) rotate(45)" fill="#FDBA74"/>
</g>
<g opacity="0.5">
<rect width="4" height="33.4756" transform="translate(65.1289 -8.54199) rotate(45)" fill="#FDBA74"/>
</g>
<g opacity="0.5">
<rect width="4" height="12" transform="translate(63.4844 5.09961) rotate(45)" fill="#FDBA74"/>
</g>
</g>
<g clip-path="url(#clip6_154_17047)">
<g opacity="0.5">
<rect width="4" height="12" transform="translate(63.4844 -6.90039) rotate(45)" fill="#FDBA74"/>
</g>
<g opacity="0.5">
<rect width="4" height="33.4756" transform="translate(77.1289 -8.54199) rotate(45)" fill="#FDBA74"/>
</g>
<g opacity="0.5">
<rect width="4" height="12" transform="translate(75.4844 5.09961) rotate(45)" fill="#FDBA74"/>
</g>
</g>
<g clip-path="url(#clip7_154_17047)">
<g opacity="0.5">
<rect width="4" height="12" transform="translate(75.4844 -6.90039) rotate(45)" fill="#FDBA74"/>
</g>
<g opacity="0.5">
<rect width="4" height="33.4756" transform="translate(89.1289 -8.54199) rotate(45)" fill="#FDBA74"/>
</g>
<g opacity="0.5">
<rect width="4" height="12" transform="translate(87.4844 5.09961) rotate(45)" fill="#FDBA74"/>
</g>
</g>
<g clip-path="url(#clip8_154_17047)">
<g opacity="0.5">
<rect width="4" height="12" transform="translate(87.4844 -6.90039) rotate(45)" fill="#FDBA74"/>
</g>
<g opacity="0.5">
<rect width="4" height="33.4756" transform="translate(101.129 -8.54199) rotate(45)" fill="#FDBA74"/>
</g>
<g opacity="0.5">
<rect width="4" height="12" transform="translate(99.4844 5.09961) rotate(45)" fill="#FDBA74"/>
</g>
</g>
<g clip-path="url(#clip9_154_17047)">
<g opacity="0.5">
<rect width="4" height="12" transform="translate(99.4844 -6.90039) rotate(45)" fill="#FDBA74"/>
</g>
<g opacity="0.5">
<rect width="4" height="33.4756" transform="translate(113.129 -8.54199) rotate(45)" fill="#FDBA74"/>
</g>
<g opacity="0.5">
<rect width="4" height="12" transform="translate(111.484 5.09961) rotate(45)" fill="#FDBA74"/>
</g>
</g>
<g clip-path="url(#clip10_154_17047)">
<g opacity="0.5">
<rect width="4" height="12" transform="translate(111.484 -6.90039) rotate(45)" fill="#FDBA74"/>
</g>
<g opacity="0.5">
<rect width="4" height="33.4756" transform="translate(125.129 -8.54199) rotate(45)" fill="#FDBA74"/>
</g>
<g opacity="0.5">
<rect width="4" height="12" transform="translate(123.484 5.09961) rotate(45)" fill="#FDBA74"/>
</g>
</g>
<g clip-path="url(#clip11_154_17047)">
<g opacity="0.5">
<rect width="4" height="12" transform="translate(123.484 -6.90039) rotate(45)" fill="#FDBA74"/>
</g>
<g opacity="0.5">
<rect width="4" height="33.4756" transform="translate(137.129 -8.54199) rotate(45)" fill="#FDBA74"/>
</g>
<g opacity="0.5">
<rect width="4" height="12" transform="translate(135.484 5.09961) rotate(45)" fill="#FDBA74"/>
</g>
</g>
<g clip-path="url(#clip12_154_17047)">
<g opacity="0.5">
<rect width="4" height="12" transform="translate(135.484 -6.90039) rotate(45)" fill="#FDBA74"/>
</g>
<g opacity="0.5">
<rect width="4" height="33.4756" transform="translate(149.129 -8.54199) rotate(45)" fill="#FDBA74"/>
</g>
<g opacity="0.5">
<rect width="4" height="12" transform="translate(147.484 5.09961) rotate(45)" fill="#FDBA74"/>
</g>
</g>
<g clip-path="url(#clip13_154_17047)">
<g opacity="0.5">
<rect width="4" height="12" transform="translate(147.484 -6.90039) rotate(45)" fill="#FDBA74"/>
</g>
<g opacity="0.5">
<rect width="4" height="33.4756" transform="translate(161.129 -8.54199) rotate(45)" fill="#FDBA74"/>
</g>
<g opacity="0.5">
<rect width="4" height="12" transform="translate(159.484 5.09961) rotate(45)" fill="#FDBA74"/>
</g>
</g>
<g clip-path="url(#clip14_154_17047)">
<g opacity="0.5">
<rect width="4" height="12" transform="translate(159.484 -6.90039) rotate(45)" fill="#FDBA74"/>
</g>
<g opacity="0.5">
<rect width="4" height="33.4756" transform="translate(173.129 -8.54199) rotate(45)" fill="#FDBA74"/>
</g>
<g opacity="0.5">
<rect width="4" height="12" transform="translate(171.484 5.09961) rotate(45)" fill="#FDBA74"/>
</g>
</g>
<g clip-path="url(#clip15_154_17047)">
<g opacity="0.5">
<rect width="4" height="12" transform="translate(171.484 -6.90039) rotate(45)" fill="#FDBA74"/>
</g>
<g opacity="0.5">
<rect width="4" height="33.4756" transform="translate(185.129 -8.54199) rotate(45)" fill="#FDBA74"/>
</g>
<g opacity="0.5">
<rect width="4" height="12" transform="translate(183.484 5.09961) rotate(45)" fill="#FDBA74"/>
</g>
</g>
<g clip-path="url(#clip16_154_17047)">
<g opacity="0.5">
<rect width="4" height="12" transform="translate(183.484 -6.90039) rotate(45)" fill="#FDBA74"/>
</g>
<g opacity="0.5">
<rect width="4" height="33.4756" transform="translate(197.129 -8.54199) rotate(45)" fill="#FDBA74"/>
</g>
<g opacity="0.5">
<rect width="4" height="12" transform="translate(195.484 5.09961) rotate(45)" fill="#FDBA74"/>
</g>
</g>
<g clip-path="url(#clip17_154_17047)">
<g opacity="0.5">
<rect width="4" height="12" transform="translate(195.484 -6.90039) rotate(45)" fill="#FDBA74"/>
</g>
<g opacity="0.5">
<rect width="4" height="33.4756" transform="translate(209.129 -8.54199) rotate(45)" fill="#FDBA74"/>
</g>
<g opacity="0.5">
<rect width="4" height="12" transform="translate(207.484 5.09961) rotate(45)" fill="#FDBA74"/>
</g>
</g>
<g clip-path="url(#clip18_154_17047)">
<g opacity="0.5">
<rect width="4" height="12" transform="translate(207.484 -6.90039) rotate(45)" fill="#FDBA74"/>
</g>
<g opacity="0.5">
<rect width="4" height="33.4756" transform="translate(221.129 -8.54199) rotate(45)" fill="#FDBA74"/>
</g>
<g opacity="0.5">
<rect width="4" height="12" transform="translate(219.484 5.09961) rotate(45)" fill="#FDBA74"/>
</g>
</g>
<g clip-path="url(#clip19_154_17047)">
<g opacity="0.5">
<rect width="4" height="12" transform="translate(219.484 -6.90039) rotate(45)" fill="#FDBA74"/>
</g>
<g opacity="0.5">
<rect width="4" height="33.4756" transform="translate(233.129 -8.54199) rotate(45)" fill="#FDBA74"/>
</g>
<g opacity="0.5">
<rect width="4" height="12" transform="translate(231.484 5.09961) rotate(45)" fill="#FDBA74"/>
</g>
</g>
<g clip-path="url(#clip20_154_17047)">
<g opacity="0.5">
<rect width="4" height="12" transform="translate(231.484 -6.90039) rotate(45)" fill="#FDBA74"/>
</g>
<g opacity="0.5">
<rect width="4" height="33.4756" transform="translate(245.129 -8.54199) rotate(45)" fill="#FDBA74"/>
</g>
<g opacity="0.5">
<rect width="4" height="12" transform="translate(243.484 5.09961) rotate(45)" fill="#FDBA74"/>
</g>
</g>
<g clip-path="url(#clip21_154_17047)">
<g opacity="0.5">
<rect width="4" height="12" transform="translate(243.484 -6.90039) rotate(45)" fill="#FDBA74"/>
</g>
<g opacity="0.5">
<rect width="4" height="33.4756" transform="translate(257.129 -8.54199) rotate(45)" fill="#FDBA74"/>
</g>
<g opacity="0.5">
<rect width="4" height="12" transform="translate(255.484 5.09961) rotate(45)" fill="#FDBA74"/>
</g>
</g>
<g clip-path="url(#clip22_154_17047)">
<g opacity="0.5">
<rect width="4" height="12" transform="translate(255.484 -6.90039) rotate(45)" fill="#FDBA74"/>
</g>
<g opacity="0.5">
<rect width="4" height="33.4756" transform="translate(269.129 -8.54199) rotate(45)" fill="#FDBA74"/>
</g>
<g opacity="0.5">
<rect width="4" height="12" transform="translate(267.484 5.09961) rotate(45)" fill="#FDBA74"/>
</g>
</g>
<g clip-path="url(#clip23_154_17047)">
<g opacity="0.5">
<rect width="4" height="12" transform="translate(267.484 -6.90039) rotate(45)" fill="#FDBA74"/>
</g>
<g opacity="0.5">
<rect width="4" height="33.4756" transform="translate(281.129 -8.54199) rotate(45)" fill="#FDBA74"/>
</g>
<g opacity="0.5">
<rect width="4" height="12" transform="translate(279.484 5.09961) rotate(45)" fill="#FDBA74"/>
</g>
</g>
<g clip-path="url(#clip24_154_17047)">
<g opacity="0.5">
<rect width="4" height="12" transform="translate(279.484 -6.90039) rotate(45)" fill="#FDBA74"/>
</g>
<g opacity="0.5">
<rect width="4" height="33.4756" transform="translate(293.129 -8.54199) rotate(45)" fill="#FDBA74"/>
</g>
<g opacity="0.5">
<rect width="4" height="12" transform="translate(291.484 5.09961) rotate(45)" fill="#FDBA74"/>
</g>
</g>
<g clip-path="url(#clip25_154_17047)">
<g opacity="0.5">
<rect width="4" height="12" transform="translate(291.484 -6.90039) rotate(45)" fill="#FDBA74"/>
</g>
<g opacity="0.5">
<rect width="4" height="33.4756" transform="translate(305.129 -8.54199) rotate(45)" fill="#FDBA74"/>
</g>
<g opacity="0.5">
<rect width="4" height="12" transform="translate(303.484 5.09961) rotate(45)" fill="#FDBA74"/>
</g>
</g>
<g clip-path="url(#clip26_154_17047)">
<g opacity="0.5">
<rect width="4" height="12" transform="translate(303.484 -6.90039) rotate(45)" fill="#FDBA74"/>
</g>
<g opacity="0.5">
<rect width="4" height="33.4756" transform="translate(317.129 -8.54199) rotate(45)" fill="#FDBA74"/>
</g>
<g opacity="0.5">
<rect width="4" height="12" transform="translate(315.484 5.09961) rotate(45)" fill="#FDBA74"/>
</g>
</g>
<g clip-path="url(#clip27_154_17047)">
<g opacity="0.5">
<rect width="4" height="12" transform="translate(315.484 -6.90039) rotate(45)" fill="#FDBA74"/>
</g>
<g opacity="0.5">
<rect width="4" height="33.4756" transform="translate(329.129 -8.54199) rotate(45)" fill="#FDBA74"/>
</g>
<g opacity="0.5">
<rect width="4" height="12" transform="translate(327.484 5.09961) rotate(45)" fill="#FDBA74"/>
</g>
</g>
<g clip-path="url(#clip28_154_17047)">
<g opacity="0.5">
<rect width="4" height="12" transform="translate(327.484 -6.90039) rotate(45)" fill="#FDBA74"/>
</g>
<g opacity="0.5">
<rect width="4" height="33.4756" transform="translate(341.129 -8.54199) rotate(45)" fill="#FDBA74"/>
</g>
<g opacity="0.5">
<rect width="4" height="12" transform="translate(339.484 5.09961) rotate(45)" fill="#FDBA74"/>
</g>
</g>
<g clip-path="url(#clip29_154_17047)">
<g opacity="0.5">
<rect width="4" height="12" transform="translate(339.484 -6.90039) rotate(45)" fill="#FDBA74"/>
</g>
<g opacity="0.5">
<rect width="4" height="33.4756" transform="translate(353.129 -8.54199) rotate(45)" fill="#FDBA74"/>
</g>
<g opacity="0.5">
<rect width="4" height="12" transform="translate(351.484 5.09961) rotate(45)" fill="#FDBA74"/>
</g>
</g>
<g clip-path="url(#clip30_154_17047)">
<g opacity="0.5">
<rect width="4" height="12" transform="translate(351.484 -6.90039) rotate(45)" fill="#FDBA74"/>
</g>
<g opacity="0.5">
<rect width="4" height="33.4756" transform="translate(365.129 -8.54199) rotate(45)" fill="#FDBA74"/>
</g>
<g opacity="0.5">
<rect width="4" height="12" transform="translate(363.484 5.09961) rotate(45)" fill="#FDBA74"/>
</g>
</g>
<g clip-path="url(#clip31_154_17047)">
<g opacity="0.5">
<rect width="4" height="12" transform="translate(363.484 -6.90039) rotate(45)" fill="#FDBA74"/>
</g>
<g opacity="0.5">
<rect width="4" height="33.4756" transform="translate(377.129 -8.54199) rotate(45)" fill="#FDBA74"/>
</g>
<g opacity="0.5">
<rect width="4" height="12" transform="translate(375.484 5.09961) rotate(45)" fill="#FDBA74"/>
</g>
</g>
<g clip-path="url(#clip32_154_17047)">
<g opacity="0.5">
<rect width="4" height="12" transform="translate(3.48438 5.09961) rotate(45)" fill="#FDBA74"/>
</g>
<g opacity="0.5">
<rect width="4" height="33.4756" transform="translate(17.1289 3.45801) rotate(45)" fill="#FDBA74"/>
</g>
<g opacity="0.5">
<rect width="4" height="12" transform="translate(15.4844 17.0996) rotate(45)" fill="#FDBA74"/>
</g>
</g>
<g clip-path="url(#clip33_154_17047)">
<g opacity="0.5">
<rect width="4" height="12" transform="translate(15.4844 5.09961) rotate(45)" fill="#FDBA74"/>
</g>
<g opacity="0.5">
<rect width="4" height="33.4756" transform="translate(29.1289 3.45801) rotate(45)" fill="#FDBA74"/>
</g>
<g opacity="0.5">
<rect width="4" height="12" transform="translate(27.4844 17.0996) rotate(45)" fill="#FDBA74"/>
</g>
</g>
<g clip-path="url(#clip34_154_17047)">
<g opacity="0.5">
<rect width="4" height="12" transform="translate(27.4844 5.09961) rotate(45)" fill="#FDBA74"/>
</g>
<g opacity="0.5">
<rect width="4" height="33.4756" transform="translate(41.1289 3.45801) rotate(45)" fill="#FDBA74"/>
</g>
<g opacity="0.5">
<rect width="4" height="12" transform="translate(39.4844 17.0996) rotate(45)" fill="#FDBA74"/>
</g>
</g>
<g clip-path="url(#clip35_154_17047)">
<g opacity="0.5">
<rect width="4" height="12" transform="translate(39.4844 5.09961) rotate(45)" fill="#FDBA74"/>
</g>
<g opacity="0.5">
<rect width="4" height="33.4756" transform="translate(53.1289 3.45801) rotate(45)" fill="#FDBA74"/>
</g>
<g opacity="0.5">
<rect width="4" height="12" transform="translate(51.4844 17.0996) rotate(45)" fill="#FDBA74"/>
</g>
</g>
<g clip-path="url(#clip36_154_17047)">
<g opacity="0.5">
<rect width="4" height="12" transform="translate(51.4844 5.09961) rotate(45)" fill="#FDBA74"/>
</g>
<g opacity="0.5">
<rect width="4" height="33.4756" transform="translate(65.1289 3.45801) rotate(45)" fill="#FDBA74"/>
</g>
<g opacity="0.5">
<rect width="4" height="12" transform="translate(63.4844 17.0996) rotate(45)" fill="#FDBA74"/>
</g>
</g>
<g clip-path="url(#clip37_154_17047)">
<g opacity="0.5">
<rect width="4" height="12" transform="translate(63.4844 5.09961) rotate(45)" fill="#FDBA74"/>
</g>
<g opacity="0.5">
<rect width="4" height="33.4756" transform="translate(77.1289 3.45801) rotate(45)" fill="#FDBA74"/>
</g>
<g opacity="0.5">
<rect width="4" height="12" transform="translate(75.4844 17.0996) rotate(45)" fill="#FDBA74"/>
</g>
</g>
<g clip-path="url(#clip38_154_17047)">
<g opacity="0.5">
<rect width="4" height="12" transform="translate(75.4844 5.09961) rotate(45)" fill="#FDBA74"/>
</g>
<g opacity="0.5">
<rect width="4" height="33.4756" transform="translate(89.1289 3.45801) rotate(45)" fill="#FDBA74"/>
</g>
<g opacity="0.5">
<rect width="4" height="12" transform="translate(87.4844 17.0996) rotate(45)" fill="#FDBA74"/>
</g>
</g>
<g clip-path="url(#clip39_154_17047)">
<g opacity="0.5">
<rect width="4" height="12" transform="translate(87.4844 5.09961) rotate(45)" fill="#FDBA74"/>
</g>
<g opacity="0.5">
<rect width="4" height="33.4756" transform="translate(101.129 3.45801) rotate(45)" fill="#FDBA74"/>
</g>
<g opacity="0.5">
<rect width="4" height="12" transform="translate(99.4844 17.0996) rotate(45)" fill="#FDBA74"/>
</g>
</g>
<g clip-path="url(#clip40_154_17047)">
<g opacity="0.5">
<rect width="4" height="12" transform="translate(99.4844 5.09961) rotate(45)" fill="#FDBA74"/>
</g>
<g opacity="0.5">
<rect width="4" height="33.4756" transform="translate(113.129 3.45801) rotate(45)" fill="#FDBA74"/>
</g>
<g opacity="0.5">
<rect width="4" height="12" transform="translate(111.484 17.0996) rotate(45)" fill="#FDBA74"/>
</g>
</g>
<g clip-path="url(#clip41_154_17047)">
<g opacity="0.5">
<rect width="4" height="12" transform="translate(111.484 5.09961) rotate(45)" fill="#FDBA74"/>
</g>
<g opacity="0.5">
<rect width="4" height="33.4756" transform="translate(125.129 3.45801) rotate(45)" fill="#FDBA74"/>
</g>
<g opacity="0.5">
<rect width="4" height="12" transform="translate(123.484 17.0996) rotate(45)" fill="#FDBA74"/>
</g>
</g>
<g clip-path="url(#clip42_154_17047)">
<g opacity="0.5">
<rect width="4" height="12" transform="translate(123.484 5.09961) rotate(45)" fill="#FDBA74"/>
</g>
<g opacity="0.5">
<rect width="4" height="33.4756" transform="translate(137.129 3.45801) rotate(45)" fill="#FDBA74"/>
</g>
<g opacity="0.5">
<rect width="4" height="12" transform="translate(135.484 17.0996) rotate(45)" fill="#FDBA74"/>
</g>
</g>
<g clip-path="url(#clip43_154_17047)">
<g opacity="0.5">
<rect width="4" height="12" transform="translate(135.484 5.09961) rotate(45)" fill="#FDBA74"/>
</g>
<g opacity="0.5">
<rect width="4" height="33.4756" transform="translate(149.129 3.45801) rotate(45)" fill="#FDBA74"/>
</g>
<g opacity="0.5">
<rect width="4" height="12" transform="translate(147.484 17.0996) rotate(45)" fill="#FDBA74"/>
</g>
</g>
<g clip-path="url(#clip44_154_17047)">
<g opacity="0.5">
<rect width="4" height="12" transform="translate(147.484 5.09961) rotate(45)" fill="#FDBA74"/>
</g>
<g opacity="0.5">
<rect width="4" height="33.4756" transform="translate(161.129 3.45801) rotate(45)" fill="#FDBA74"/>
</g>
<g opacity="0.5">
<rect width="4" height="12" transform="translate(159.484 17.0996) rotate(45)" fill="#FDBA74"/>
</g>
</g>
<g clip-path="url(#clip45_154_17047)">
<g opacity="0.5">
<rect width="4" height="12" transform="translate(159.484 5.09961) rotate(45)" fill="#FDBA74"/>
</g>
<g opacity="0.5">
<rect width="4" height="33.4756" transform="translate(173.129 3.45801) rotate(45)" fill="#FDBA74"/>
</g>
<g opacity="0.5">
<rect width="4" height="12" transform="translate(171.484 17.0996) rotate(45)" fill="#FDBA74"/>
</g>
</g>
<g clip-path="url(#clip46_154_17047)">
<g opacity="0.5">
<rect width="4" height="12" transform="translate(171.484 5.09961) rotate(45)" fill="#FDBA74"/>
</g>
<g opacity="0.5">
<rect width="4" height="33.4756" transform="translate(185.129 3.45801) rotate(45)" fill="#FDBA74"/>
</g>
<g opacity="0.5">
<rect width="4" height="12" transform="translate(183.484 17.0996) rotate(45)" fill="#FDBA74"/>
</g>
</g>
<g clip-path="url(#clip47_154_17047)">
<g opacity="0.5">
<rect width="4" height="12" transform="translate(183.484 5.09961) rotate(45)" fill="#FDBA74"/>
</g>
<g opacity="0.5">
<rect width="4" height="33.4756" transform="translate(197.129 3.45801) rotate(45)" fill="#FDBA74"/>
</g>
<g opacity="0.5">
<rect width="4" height="12" transform="translate(195.484 17.0996) rotate(45)" fill="#FDBA74"/>
</g>
</g>
<g clip-path="url(#clip48_154_17047)">
<g opacity="0.5">
<rect width="4" height="12" transform="translate(195.484 5.09961) rotate(45)" fill="#FDBA74"/>
</g>
<g opacity="0.5">
<rect width="4" height="33.4756" transform="translate(209.129 3.45801) rotate(45)" fill="#FDBA74"/>
</g>
<g opacity="0.5">
<rect width="4" height="12" transform="translate(207.484 17.0996) rotate(45)" fill="#FDBA74"/>
</g>
</g>
<g clip-path="url(#clip49_154_17047)">
<g opacity="0.5">
<rect width="4" height="12" transform="translate(207.484 5.09961) rotate(45)" fill="#FDBA74"/>
</g>
<g opacity="0.5">
<rect width="4" height="33.4756" transform="translate(221.129 3.45801) rotate(45)" fill="#FDBA74"/>
</g>
<g opacity="0.5">
<rect width="4" height="12" transform="translate(219.484 17.0996) rotate(45)" fill="#FDBA74"/>
</g>
</g>
<g clip-path="url(#clip50_154_17047)">
<g opacity="0.5">
<rect width="4" height="12" transform="translate(219.484 5.09961) rotate(45)" fill="#FDBA74"/>
</g>
<g opacity="0.5">
<rect width="4" height="33.4756" transform="translate(233.129 3.45801) rotate(45)" fill="#FDBA74"/>
</g>
<g opacity="0.5">
<rect width="4" height="12" transform="translate(231.484 17.0996) rotate(45)" fill="#FDBA74"/>
</g>
</g>
<g clip-path="url(#clip51_154_17047)">
<g opacity="0.5">
<rect width="4" height="12" transform="translate(231.484 5.09961) rotate(45)" fill="#FDBA74"/>
</g>
<g opacity="0.5">
<rect width="4" height="33.4756" transform="translate(245.129 3.45801) rotate(45)" fill="#FDBA74"/>
</g>
<g opacity="0.5">
<rect width="4" height="12" transform="translate(243.484 17.0996) rotate(45)" fill="#FDBA74"/>
</g>
</g>
<g clip-path="url(#clip52_154_17047)">
<g opacity="0.5">
<rect width="4" height="12" transform="translate(243.484 5.09961) rotate(45)" fill="#FDBA74"/>
</g>
<g opacity="0.5">
<rect width="4" height="33.4756" transform="translate(257.129 3.45801) rotate(45)" fill="#FDBA74"/>
</g>
<g opacity="0.5">
<rect width="4" height="12" transform="translate(255.484 17.0996) rotate(45)" fill="#FDBA74"/>
</g>
</g>
<g clip-path="url(#clip53_154_17047)">
<g opacity="0.5">
<rect width="4" height="12" transform="translate(255.484 5.09961) rotate(45)" fill="#FDBA74"/>
</g>
<g opacity="0.5">
<rect width="4" height="33.4756" transform="translate(269.129 3.45801) rotate(45)" fill="#FDBA74"/>
</g>
<g opacity="0.5">
<rect width="4" height="12" transform="translate(267.484 17.0996) rotate(45)" fill="#FDBA74"/>
</g>
</g>
<g clip-path="url(#clip54_154_17047)">
<g opacity="0.5">
<rect width="4" height="12" transform="translate(267.484 5.09961) rotate(45)" fill="#FDBA74"/>
</g>
<g opacity="0.5">
<rect width="4" height="33.4756" transform="translate(281.129 3.45801) rotate(45)" fill="#FDBA74"/>
</g>
<g opacity="0.5">
<rect width="4" height="12" transform="translate(279.484 17.0996) rotate(45)" fill="#FDBA74"/>
</g>
</g>
<g clip-path="url(#clip55_154_17047)">
<g opacity="0.5">
<rect width="4" height="12" transform="translate(279.484 5.09961) rotate(45)" fill="#FDBA74"/>
</g>
<g opacity="0.5">
<rect width="4" height="33.4756" transform="translate(293.129 3.45801) rotate(45)" fill="#FDBA74"/>
</g>
<g opacity="0.5">
<rect width="4" height="12" transform="translate(291.484 17.0996) rotate(45)" fill="#FDBA74"/>
</g>
</g>
<g clip-path="url(#clip56_154_17047)">
<g opacity="0.5">
<rect width="4" height="12" transform="translate(291.484 5.09961) rotate(45)" fill="#FDBA74"/>
</g>
<g opacity="0.5">
<rect width="4" height="33.4756" transform="translate(305.129 3.45801) rotate(45)" fill="#FDBA74"/>
</g>
<g opacity="0.5">
<rect width="4" height="12" transform="translate(303.484 17.0996) rotate(45)" fill="#FDBA74"/>
</g>
</g>
<g clip-path="url(#clip57_154_17047)">
<g opacity="0.5">
<rect width="4" height="12" transform="translate(303.484 5.09961) rotate(45)" fill="#FDBA74"/>
</g>
<g opacity="0.5">
<rect width="4" height="33.4756" transform="translate(317.129 3.45801) rotate(45)" fill="#FDBA74"/>
</g>
<g opacity="0.5">
<rect width="4" height="12" transform="translate(315.484 17.0996) rotate(45)" fill="#FDBA74"/>
</g>
</g>
<g clip-path="url(#clip58_154_17047)">
<g opacity="0.5">
<rect width="4" height="12" transform="translate(315.484 5.09961) rotate(45)" fill="#FDBA74"/>
</g>
<g opacity="0.5">
<rect width="4" height="33.4756" transform="translate(329.129 3.45801) rotate(45)" fill="#FDBA74"/>
</g>
<g opacity="0.5">
<rect width="4" height="12" transform="translate(327.484 17.0996) rotate(45)" fill="#FDBA74"/>
</g>
</g>
<g clip-path="url(#clip59_154_17047)">
<g opacity="0.5">
<rect width="4" height="12" transform="translate(327.484 5.09961) rotate(45)" fill="#FDBA74"/>
</g>
<g opacity="0.5">
<rect width="4" height="33.4756" transform="translate(341.129 3.45801) rotate(45)" fill="#FDBA74"/>
</g>
<g opacity="0.5">
<rect width="4" height="12" transform="translate(339.484 17.0996) rotate(45)" fill="#FDBA74"/>
</g>
</g>
<g clip-path="url(#clip60_154_17047)">
<g opacity="0.5">
<rect width="4" height="12" transform="translate(339.484 5.09961) rotate(45)" fill="#FDBA74"/>
</g>
<g opacity="0.5">
<rect width="4" height="33.4756" transform="translate(353.129 3.45801) rotate(45)" fill="#FDBA74"/>
</g>
<g opacity="0.5">
<rect width="4" height="12" transform="translate(351.484 17.0996) rotate(45)" fill="#FDBA74"/>
</g>
</g>
<g clip-path="url(#clip61_154_17047)">
<g opacity="0.5">
<rect width="4" height="12" transform="translate(351.484 5.09961) rotate(45)" fill="#FDBA74"/>
</g>
<g opacity="0.5">
<rect width="4" height="33.4756" transform="translate(365.129 3.45801) rotate(45)" fill="#FDBA74"/>
</g>
<g opacity="0.5">
<rect width="4" height="12" transform="translate(363.484 17.0996) rotate(45)" fill="#FDBA74"/>
</g>
</g>
<g clip-path="url(#clip62_154_17047)">
<g opacity="0.5">
<rect width="4" height="12" transform="translate(363.484 5.09961) rotate(45)" fill="#FDBA74"/>
</g>
<g opacity="0.5">
<rect width="4" height="33.4756" transform="translate(377.129 3.45801) rotate(45)" fill="#FDBA74"/>
</g>
<g opacity="0.5">
<rect width="4" height="12" transform="translate(375.484 17.0996) rotate(45)" fill="#FDBA74"/>
</g>
</g>
</g>
<defs>
<clipPath id="clip0_154_17047">
<rect width="372" height="24" fill="white"/>
</clipPath>
<clipPath id="clip1_154_17047">
<rect width="12" height="12" fill="white"/>
</clipPath>
<clipPath id="clip2_154_17047">
<rect width="12" height="12" fill="white" transform="translate(12)"/>
</clipPath>
<clipPath id="clip3_154_17047">
<rect width="12" height="12" fill="white" transform="translate(24)"/>
</clipPath>
<clipPath id="clip4_154_17047">
<rect width="12" height="12" fill="white" transform="translate(36)"/>
</clipPath>
<clipPath id="clip5_154_17047">
<rect width="12" height="12" fill="white" transform="translate(48)"/>
</clipPath>
<clipPath id="clip6_154_17047">
<rect width="12" height="12" fill="white" transform="translate(60)"/>
</clipPath>
<clipPath id="clip7_154_17047">
<rect width="12" height="12" fill="white" transform="translate(72)"/>
</clipPath>
<clipPath id="clip8_154_17047">
<rect width="12" height="12" fill="white" transform="translate(84)"/>
</clipPath>
<clipPath id="clip9_154_17047">
<rect width="12" height="12" fill="white" transform="translate(96)"/>
</clipPath>
<clipPath id="clip10_154_17047">
<rect width="12" height="12" fill="white" transform="translate(108)"/>
</clipPath>
<clipPath id="clip11_154_17047">
<rect width="12" height="12" fill="white" transform="translate(120)"/>
</clipPath>
<clipPath id="clip12_154_17047">
<rect width="12" height="12" fill="white" transform="translate(132)"/>
</clipPath>
<clipPath id="clip13_154_17047">
<rect width="12" height="12" fill="white" transform="translate(144)"/>
</clipPath>
<clipPath id="clip14_154_17047">
<rect width="12" height="12" fill="white" transform="translate(156)"/>
</clipPath>
<clipPath id="clip15_154_17047">
<rect width="12" height="12" fill="white" transform="translate(168)"/>
</clipPath>
<clipPath id="clip16_154_17047">
<rect width="12" height="12" fill="white" transform="translate(180)"/>
</clipPath>
<clipPath id="clip17_154_17047">
<rect width="12" height="12" fill="white" transform="translate(192)"/>
</clipPath>
<clipPath id="clip18_154_17047">
<rect width="12" height="12" fill="white" transform="translate(204)"/>
</clipPath>
<clipPath id="clip19_154_17047">
<rect width="12" height="12" fill="white" transform="translate(216)"/>
</clipPath>
<clipPath id="clip20_154_17047">
<rect width="12" height="12" fill="white" transform="translate(228)"/>
</clipPath>
<clipPath id="clip21_154_17047">
<rect width="12" height="12" fill="white" transform="translate(240)"/>
</clipPath>
<clipPath id="clip22_154_17047">
<rect width="12" height="12" fill="white" transform="translate(252)"/>
</clipPath>
<clipPath id="clip23_154_17047">
<rect width="12" height="12" fill="white" transform="translate(264)"/>
</clipPath>
<clipPath id="clip24_154_17047">
<rect width="12" height="12" fill="white" transform="translate(276)"/>
</clipPath>
<clipPath id="clip25_154_17047">
<rect width="12" height="12" fill="white" transform="translate(288)"/>
</clipPath>
<clipPath id="clip26_154_17047">
<rect width="12" height="12" fill="white" transform="translate(300)"/>
</clipPath>
<clipPath id="clip27_154_17047">
<rect width="12" height="12" fill="white" transform="translate(312)"/>
</clipPath>
<clipPath id="clip28_154_17047">
<rect width="12" height="12" fill="white" transform="translate(324)"/>
</clipPath>
<clipPath id="clip29_154_17047">
<rect width="12" height="12" fill="white" transform="translate(336)"/>
</clipPath>
<clipPath id="clip30_154_17047">
<rect width="12" height="12" fill="white" transform="translate(348)"/>
</clipPath>
<clipPath id="clip31_154_17047">
<rect width="12" height="12" fill="white" transform="translate(360)"/>
</clipPath>
<clipPath id="clip32_154_17047">
<rect width="12" height="12" fill="white" transform="translate(0 12)"/>
</clipPath>
<clipPath id="clip33_154_17047">
<rect width="12" height="12" fill="white" transform="translate(12 12)"/>
</clipPath>
<clipPath id="clip34_154_17047">
<rect width="12" height="12" fill="white" transform="translate(24 12)"/>
</clipPath>
<clipPath id="clip35_154_17047">
<rect width="12" height="12" fill="white" transform="translate(36 12)"/>
</clipPath>
<clipPath id="clip36_154_17047">
<rect width="12" height="12" fill="white" transform="translate(48 12)"/>
</clipPath>
<clipPath id="clip37_154_17047">
<rect width="12" height="12" fill="white" transform="translate(60 12)"/>
</clipPath>
<clipPath id="clip38_154_17047">
<rect width="12" height="12" fill="white" transform="translate(72 12)"/>
</clipPath>
<clipPath id="clip39_154_17047">
<rect width="12" height="12" fill="white" transform="translate(84 12)"/>
</clipPath>
<clipPath id="clip40_154_17047">
<rect width="12" height="12" fill="white" transform="translate(96 12)"/>
</clipPath>
<clipPath id="clip41_154_17047">
<rect width="12" height="12" fill="white" transform="translate(108 12)"/>
</clipPath>
<clipPath id="clip42_154_17047">
<rect width="12" height="12" fill="white" transform="translate(120 12)"/>
</clipPath>
<clipPath id="clip43_154_17047">
<rect width="12" height="12" fill="white" transform="translate(132 12)"/>
</clipPath>
<clipPath id="clip44_154_17047">
<rect width="12" height="12" fill="white" transform="translate(144 12)"/>
</clipPath>
<clipPath id="clip45_154_17047">
<rect width="12" height="12" fill="white" transform="translate(156 12)"/>
</clipPath>
<clipPath id="clip46_154_17047">
<rect width="12" height="12" fill="white" transform="translate(168 12)"/>
</clipPath>
<clipPath id="clip47_154_17047">
<rect width="12" height="12" fill="white" transform="translate(180 12)"/>
</clipPath>
<clipPath id="clip48_154_17047">
<rect width="12" height="12" fill="white" transform="translate(192 12)"/>
</clipPath>
<clipPath id="clip49_154_17047">
<rect width="12" height="12" fill="white" transform="translate(204 12)"/>
</clipPath>
<clipPath id="clip50_154_17047">
<rect width="12" height="12" fill="white" transform="translate(216 12)"/>
</clipPath>
<clipPath id="clip51_154_17047">
<rect width="12" height="12" fill="white" transform="translate(228 12)"/>
</clipPath>
<clipPath id="clip52_154_17047">
<rect width="12" height="12" fill="white" transform="translate(240 12)"/>
</clipPath>
<clipPath id="clip53_154_17047">
<rect width="12" height="12" fill="white" transform="translate(252 12)"/>
</clipPath>
<clipPath id="clip54_154_17047">
<rect width="12" height="12" fill="white" transform="translate(264 12)"/>
</clipPath>
<clipPath id="clip55_154_17047">
<rect width="12" height="12" fill="white" transform="translate(276 12)"/>
</clipPath>
<clipPath id="clip56_154_17047">
<rect width="12" height="12" fill="white" transform="translate(288 12)"/>
</clipPath>
<clipPath id="clip57_154_17047">
<rect width="12" height="12" fill="white" transform="translate(300 12)"/>
</clipPath>
<clipPath id="clip58_154_17047">
<rect width="12" height="12" fill="white" transform="translate(312 12)"/>
</clipPath>
<clipPath id="clip59_154_17047">
<rect width="12" height="12" fill="white" transform="translate(324 12)"/>
</clipPath>
<clipPath id="clip60_154_17047">
<rect width="12" height="12" fill="white" transform="translate(336 12)"/>
</clipPath>
<clipPath id="clip61_154_17047">
<rect width="12" height="12" fill="white" transform="translate(348 12)"/>
</clipPath>
<clipPath id="clip62_154_17047">
<rect width="12" height="12" fill="white" transform="translate(360 12)"/>
</clipPath>
</defs>
</svg>
