<svg width="372" height="24" viewBox="0 0 372 24" fill="none" xmlns="http://www.w3.org/2000/svg">
<g clip-path="url(#clip0_129_16196)">
<g clip-path="url(#clip1_129_16196)">
<g opacity="0.5">
<rect width="4" height="12" transform="translate(3.48438 -6.90039) rotate(45)" fill="#D1D5DB"/>
</g>
<g opacity="0.5">
<rect width="4" height="33.4756" transform="translate(17.1289 -8.54199) rotate(45)" fill="#D1D5DB"/>
</g>
<g opacity="0.5">
<rect width="4" height="12" transform="translate(15.4844 5.09961) rotate(45)" fill="#D1D5DB"/>
</g>
</g>
<g clip-path="url(#clip2_129_16196)">
<g opacity="0.5">
<rect width="4" height="12" transform="translate(15.4844 -6.90039) rotate(45)" fill="#D1D5DB"/>
</g>
<g opacity="0.5">
<rect width="4" height="33.4756" transform="translate(29.1289 -8.54199) rotate(45)" fill="#D1D5DB"/>
</g>
<g opacity="0.5">
<rect width="4" height="12" transform="translate(27.4844 5.09961) rotate(45)" fill="#D1D5DB"/>
</g>
</g>
<g clip-path="url(#clip3_129_16196)">
<g opacity="0.5">
<rect width="4" height="12" transform="translate(27.4844 -6.90039) rotate(45)" fill="#D1D5DB"/>
</g>
<g opacity="0.5">
<rect width="4" height="33.4756" transform="translate(41.1289 -8.54199) rotate(45)" fill="#D1D5DB"/>
</g>
<g opacity="0.5">
<rect width="4" height="12" transform="translate(39.4844 5.09961) rotate(45)" fill="#D1D5DB"/>
</g>
</g>
<g clip-path="url(#clip4_129_16196)">
<g opacity="0.5">
<rect width="4" height="12" transform="translate(39.4844 -6.90039) rotate(45)" fill="#D1D5DB"/>
</g>
<g opacity="0.5">
<rect width="4" height="33.4756" transform="translate(53.1289 -8.54199) rotate(45)" fill="#D1D5DB"/>
</g>
<g opacity="0.5">
<rect width="4" height="12" transform="translate(51.4844 5.09961) rotate(45)" fill="#D1D5DB"/>
</g>
</g>
<g clip-path="url(#clip5_129_16196)">
<g opacity="0.5">
<rect width="4" height="12" transform="translate(51.4844 -6.90039) rotate(45)" fill="#D1D5DB"/>
</g>
<g opacity="0.5">
<rect width="4" height="33.4756" transform="translate(65.1289 -8.54199) rotate(45)" fill="#D1D5DB"/>
</g>
<g opacity="0.5">
<rect width="4" height="12" transform="translate(63.4844 5.09961) rotate(45)" fill="#D1D5DB"/>
</g>
</g>
<g clip-path="url(#clip6_129_16196)">
<g opacity="0.5">
<rect width="4" height="12" transform="translate(63.4844 -6.90039) rotate(45)" fill="#D1D5DB"/>
</g>
<g opacity="0.5">
<rect width="4" height="33.4756" transform="translate(77.1289 -8.54199) rotate(45)" fill="#D1D5DB"/>
</g>
<g opacity="0.5">
<rect width="4" height="12" transform="translate(75.4844 5.09961) rotate(45)" fill="#D1D5DB"/>
</g>
</g>
<g clip-path="url(#clip7_129_16196)">
<g opacity="0.5">
<rect width="4" height="12" transform="translate(75.4844 -6.90039) rotate(45)" fill="#D1D5DB"/>
</g>
<g opacity="0.5">
<rect width="4" height="33.4756" transform="translate(89.1289 -8.54199) rotate(45)" fill="#D1D5DB"/>
</g>
<g opacity="0.5">
<rect width="4" height="12" transform="translate(87.4844 5.09961) rotate(45)" fill="#D1D5DB"/>
</g>
</g>
<g clip-path="url(#clip8_129_16196)">
<g opacity="0.5">
<rect width="4" height="12" transform="translate(87.4844 -6.90039) rotate(45)" fill="#D1D5DB"/>
</g>
<g opacity="0.5">
<rect width="4" height="33.4756" transform="translate(101.129 -8.54199) rotate(45)" fill="#D1D5DB"/>
</g>
<g opacity="0.5">
<rect width="4" height="12" transform="translate(99.4844 5.09961) rotate(45)" fill="#D1D5DB"/>
</g>
</g>
<g clip-path="url(#clip9_129_16196)">
<g opacity="0.5">
<rect width="4" height="12" transform="translate(99.4844 -6.90039) rotate(45)" fill="#D1D5DB"/>
</g>
<g opacity="0.5">
<rect width="4" height="33.4756" transform="translate(113.129 -8.54199) rotate(45)" fill="#D1D5DB"/>
</g>
<g opacity="0.5">
<rect width="4" height="12" transform="translate(111.484 5.09961) rotate(45)" fill="#D1D5DB"/>
</g>
</g>
<g clip-path="url(#clip10_129_16196)">
<g opacity="0.5">
<rect width="4" height="12" transform="translate(111.484 -6.90039) rotate(45)" fill="#D1D5DB"/>
</g>
<g opacity="0.5">
<rect width="4" height="33.4756" transform="translate(125.129 -8.54199) rotate(45)" fill="#D1D5DB"/>
</g>
<g opacity="0.5">
<rect width="4" height="12" transform="translate(123.484 5.09961) rotate(45)" fill="#D1D5DB"/>
</g>
</g>
<g clip-path="url(#clip11_129_16196)">
<g opacity="0.5">
<rect width="4" height="12" transform="translate(123.484 -6.90039) rotate(45)" fill="#D1D5DB"/>
</g>
<g opacity="0.5">
<rect width="4" height="33.4756" transform="translate(137.129 -8.54199) rotate(45)" fill="#D1D5DB"/>
</g>
<g opacity="0.5">
<rect width="4" height="12" transform="translate(135.484 5.09961) rotate(45)" fill="#D1D5DB"/>
</g>
</g>
<g clip-path="url(#clip12_129_16196)">
<g opacity="0.5">
<rect width="4" height="12" transform="translate(135.484 -6.90039) rotate(45)" fill="#D1D5DB"/>
</g>
<g opacity="0.5">
<rect width="4" height="33.4756" transform="translate(149.129 -8.54199) rotate(45)" fill="#D1D5DB"/>
</g>
<g opacity="0.5">
<rect width="4" height="12" transform="translate(147.484 5.09961) rotate(45)" fill="#D1D5DB"/>
</g>
</g>
<g clip-path="url(#clip13_129_16196)">
<g opacity="0.5">
<rect width="4" height="12" transform="translate(147.484 -6.90039) rotate(45)" fill="#D1D5DB"/>
</g>
<g opacity="0.5">
<rect width="4" height="33.4756" transform="translate(161.129 -8.54199) rotate(45)" fill="#D1D5DB"/>
</g>
<g opacity="0.5">
<rect width="4" height="12" transform="translate(159.484 5.09961) rotate(45)" fill="#D1D5DB"/>
</g>
</g>
<g clip-path="url(#clip14_129_16196)">
<g opacity="0.5">
<rect width="4" height="12" transform="translate(159.484 -6.90039) rotate(45)" fill="#D1D5DB"/>
</g>
<g opacity="0.5">
<rect width="4" height="33.4756" transform="translate(173.129 -8.54199) rotate(45)" fill="#D1D5DB"/>
</g>
<g opacity="0.5">
<rect width="4" height="12" transform="translate(171.484 5.09961) rotate(45)" fill="#D1D5DB"/>
</g>
</g>
<g clip-path="url(#clip15_129_16196)">
<g opacity="0.5">
<rect width="4" height="12" transform="translate(171.484 -6.90039) rotate(45)" fill="#D1D5DB"/>
</g>
<g opacity="0.5">
<rect width="4" height="33.4756" transform="translate(185.129 -8.54199) rotate(45)" fill="#D1D5DB"/>
</g>
<g opacity="0.5">
<rect width="4" height="12" transform="translate(183.484 5.09961) rotate(45)" fill="#D1D5DB"/>
</g>
</g>
<g clip-path="url(#clip16_129_16196)">
<g opacity="0.5">
<rect width="4" height="12" transform="translate(183.484 -6.90039) rotate(45)" fill="#D1D5DB"/>
</g>
<g opacity="0.5">
<rect width="4" height="33.4756" transform="translate(197.129 -8.54199) rotate(45)" fill="#D1D5DB"/>
</g>
<g opacity="0.5">
<rect width="4" height="12" transform="translate(195.484 5.09961) rotate(45)" fill="#D1D5DB"/>
</g>
</g>
<g clip-path="url(#clip17_129_16196)">
<g opacity="0.5">
<rect width="4" height="12" transform="translate(195.484 -6.90039) rotate(45)" fill="#D1D5DB"/>
</g>
<g opacity="0.5">
<rect width="4" height="33.4756" transform="translate(209.129 -8.54199) rotate(45)" fill="#D1D5DB"/>
</g>
<g opacity="0.5">
<rect width="4" height="12" transform="translate(207.484 5.09961) rotate(45)" fill="#D1D5DB"/>
</g>
</g>
<g clip-path="url(#clip18_129_16196)">
<g opacity="0.5">
<rect width="4" height="12" transform="translate(207.484 -6.90039) rotate(45)" fill="#D1D5DB"/>
</g>
<g opacity="0.5">
<rect width="4" height="33.4756" transform="translate(221.129 -8.54199) rotate(45)" fill="#D1D5DB"/>
</g>
<g opacity="0.5">
<rect width="4" height="12" transform="translate(219.484 5.09961) rotate(45)" fill="#D1D5DB"/>
</g>
</g>
<g clip-path="url(#clip19_129_16196)">
<g opacity="0.5">
<rect width="4" height="12" transform="translate(219.484 -6.90039) rotate(45)" fill="#D1D5DB"/>
</g>
<g opacity="0.5">
<rect width="4" height="33.4756" transform="translate(233.129 -8.54199) rotate(45)" fill="#D1D5DB"/>
</g>
<g opacity="0.5">
<rect width="4" height="12" transform="translate(231.484 5.09961) rotate(45)" fill="#D1D5DB"/>
</g>
</g>
<g clip-path="url(#clip20_129_16196)">
<g opacity="0.5">
<rect width="4" height="12" transform="translate(231.484 -6.90039) rotate(45)" fill="#D1D5DB"/>
</g>
<g opacity="0.5">
<rect width="4" height="33.4756" transform="translate(245.129 -8.54199) rotate(45)" fill="#D1D5DB"/>
</g>
<g opacity="0.5">
<rect width="4" height="12" transform="translate(243.484 5.09961) rotate(45)" fill="#D1D5DB"/>
</g>
</g>
<g clip-path="url(#clip21_129_16196)">
<g opacity="0.5">
<rect width="4" height="12" transform="translate(243.484 -6.90039) rotate(45)" fill="#D1D5DB"/>
</g>
<g opacity="0.5">
<rect width="4" height="33.4756" transform="translate(257.129 -8.54199) rotate(45)" fill="#D1D5DB"/>
</g>
<g opacity="0.5">
<rect width="4" height="12" transform="translate(255.484 5.09961) rotate(45)" fill="#D1D5DB"/>
</g>
</g>
<g clip-path="url(#clip22_129_16196)">
<g opacity="0.5">
<rect width="4" height="12" transform="translate(255.484 -6.90039) rotate(45)" fill="#D1D5DB"/>
</g>
<g opacity="0.5">
<rect width="4" height="33.4756" transform="translate(269.129 -8.54199) rotate(45)" fill="#D1D5DB"/>
</g>
<g opacity="0.5">
<rect width="4" height="12" transform="translate(267.484 5.09961) rotate(45)" fill="#D1D5DB"/>
</g>
</g>
<g clip-path="url(#clip23_129_16196)">
<g opacity="0.5">
<rect width="4" height="12" transform="translate(267.484 -6.90039) rotate(45)" fill="#D1D5DB"/>
</g>
<g opacity="0.5">
<rect width="4" height="33.4756" transform="translate(281.129 -8.54199) rotate(45)" fill="#D1D5DB"/>
</g>
<g opacity="0.5">
<rect width="4" height="12" transform="translate(279.484 5.09961) rotate(45)" fill="#D1D5DB"/>
</g>
</g>
<g clip-path="url(#clip24_129_16196)">
<g opacity="0.5">
<rect width="4" height="12" transform="translate(279.484 -6.90039) rotate(45)" fill="#D1D5DB"/>
</g>
<g opacity="0.5">
<rect width="4" height="33.4756" transform="translate(293.129 -8.54199) rotate(45)" fill="#D1D5DB"/>
</g>
<g opacity="0.5">
<rect width="4" height="12" transform="translate(291.484 5.09961) rotate(45)" fill="#D1D5DB"/>
</g>
</g>
<g clip-path="url(#clip25_129_16196)">
<g opacity="0.5">
<rect width="4" height="12" transform="translate(291.484 -6.90039) rotate(45)" fill="#D1D5DB"/>
</g>
<g opacity="0.5">
<rect width="4" height="33.4756" transform="translate(305.129 -8.54199) rotate(45)" fill="#D1D5DB"/>
</g>
<g opacity="0.5">
<rect width="4" height="12" transform="translate(303.484 5.09961) rotate(45)" fill="#D1D5DB"/>
</g>
</g>
<g clip-path="url(#clip26_129_16196)">
<g opacity="0.5">
<rect width="4" height="12" transform="translate(303.484 -6.90039) rotate(45)" fill="#D1D5DB"/>
</g>
<g opacity="0.5">
<rect width="4" height="33.4756" transform="translate(317.129 -8.54199) rotate(45)" fill="#D1D5DB"/>
</g>
<g opacity="0.5">
<rect width="4" height="12" transform="translate(315.484 5.09961) rotate(45)" fill="#D1D5DB"/>
</g>
</g>
<g clip-path="url(#clip27_129_16196)">
<g opacity="0.5">
<rect width="4" height="12" transform="translate(315.484 -6.90039) rotate(45)" fill="#D1D5DB"/>
</g>
<g opacity="0.5">
<rect width="4" height="33.4756" transform="translate(329.129 -8.54199) rotate(45)" fill="#D1D5DB"/>
</g>
<g opacity="0.5">
<rect width="4" height="12" transform="translate(327.484 5.09961) rotate(45)" fill="#D1D5DB"/>
</g>
</g>
<g clip-path="url(#clip28_129_16196)">
<g opacity="0.5">
<rect width="4" height="12" transform="translate(327.484 -6.90039) rotate(45)" fill="#D1D5DB"/>
</g>
<g opacity="0.5">
<rect width="4" height="33.4756" transform="translate(341.129 -8.54199) rotate(45)" fill="#D1D5DB"/>
</g>
<g opacity="0.5">
<rect width="4" height="12" transform="translate(339.484 5.09961) rotate(45)" fill="#D1D5DB"/>
</g>
</g>
<g clip-path="url(#clip29_129_16196)">
<g opacity="0.5">
<rect width="4" height="12" transform="translate(339.484 -6.90039) rotate(45)" fill="#D1D5DB"/>
</g>
<g opacity="0.5">
<rect width="4" height="33.4756" transform="translate(353.129 -8.54199) rotate(45)" fill="#D1D5DB"/>
</g>
<g opacity="0.5">
<rect width="4" height="12" transform="translate(351.484 5.09961) rotate(45)" fill="#D1D5DB"/>
</g>
</g>
<g clip-path="url(#clip30_129_16196)">
<g opacity="0.5">
<rect width="4" height="12" transform="translate(351.484 -6.90039) rotate(45)" fill="#D1D5DB"/>
</g>
<g opacity="0.5">
<rect width="4" height="33.4756" transform="translate(365.129 -8.54199) rotate(45)" fill="#D1D5DB"/>
</g>
<g opacity="0.5">
<rect width="4" height="12" transform="translate(363.484 5.09961) rotate(45)" fill="#D1D5DB"/>
</g>
</g>
<g clip-path="url(#clip31_129_16196)">
<g opacity="0.5">
<rect width="4" height="12" transform="translate(363.484 -6.90039) rotate(45)" fill="#D1D5DB"/>
</g>
<g opacity="0.5">
<rect width="4" height="33.4756" transform="translate(377.129 -8.54199) rotate(45)" fill="#D1D5DB"/>
</g>
<g opacity="0.5">
<rect width="4" height="12" transform="translate(375.484 5.09961) rotate(45)" fill="#D1D5DB"/>
</g>
</g>
<g clip-path="url(#clip32_129_16196)">
<g opacity="0.5">
<rect width="4" height="12" transform="translate(3.48438 5.09961) rotate(45)" fill="#D1D5DB"/>
</g>
<g opacity="0.5">
<rect width="4" height="33.4756" transform="translate(17.1289 3.45801) rotate(45)" fill="#D1D5DB"/>
</g>
<g opacity="0.5">
<rect width="4" height="12" transform="translate(15.4844 17.0996) rotate(45)" fill="#D1D5DB"/>
</g>
</g>
<g clip-path="url(#clip33_129_16196)">
<g opacity="0.5">
<rect width="4" height="12" transform="translate(15.4844 5.09961) rotate(45)" fill="#D1D5DB"/>
</g>
<g opacity="0.5">
<rect width="4" height="33.4756" transform="translate(29.1289 3.45801) rotate(45)" fill="#D1D5DB"/>
</g>
<g opacity="0.5">
<rect width="4" height="12" transform="translate(27.4844 17.0996) rotate(45)" fill="#D1D5DB"/>
</g>
</g>
<g clip-path="url(#clip34_129_16196)">
<g opacity="0.5">
<rect width="4" height="12" transform="translate(27.4844 5.09961) rotate(45)" fill="#D1D5DB"/>
</g>
<g opacity="0.5">
<rect width="4" height="33.4756" transform="translate(41.1289 3.45801) rotate(45)" fill="#D1D5DB"/>
</g>
<g opacity="0.5">
<rect width="4" height="12" transform="translate(39.4844 17.0996) rotate(45)" fill="#D1D5DB"/>
</g>
</g>
<g clip-path="url(#clip35_129_16196)">
<g opacity="0.5">
<rect width="4" height="12" transform="translate(39.4844 5.09961) rotate(45)" fill="#D1D5DB"/>
</g>
<g opacity="0.5">
<rect width="4" height="33.4756" transform="translate(53.1289 3.45801) rotate(45)" fill="#D1D5DB"/>
</g>
<g opacity="0.5">
<rect width="4" height="12" transform="translate(51.4844 17.0996) rotate(45)" fill="#D1D5DB"/>
</g>
</g>
<g clip-path="url(#clip36_129_16196)">
<g opacity="0.5">
<rect width="4" height="12" transform="translate(51.4844 5.09961) rotate(45)" fill="#D1D5DB"/>
</g>
<g opacity="0.5">
<rect width="4" height="33.4756" transform="translate(65.1289 3.45801) rotate(45)" fill="#D1D5DB"/>
</g>
<g opacity="0.5">
<rect width="4" height="12" transform="translate(63.4844 17.0996) rotate(45)" fill="#D1D5DB"/>
</g>
</g>
<g clip-path="url(#clip37_129_16196)">
<g opacity="0.5">
<rect width="4" height="12" transform="translate(63.4844 5.09961) rotate(45)" fill="#D1D5DB"/>
</g>
<g opacity="0.5">
<rect width="4" height="33.4756" transform="translate(77.1289 3.45801) rotate(45)" fill="#D1D5DB"/>
</g>
<g opacity="0.5">
<rect width="4" height="12" transform="translate(75.4844 17.0996) rotate(45)" fill="#D1D5DB"/>
</g>
</g>
<g clip-path="url(#clip38_129_16196)">
<g opacity="0.5">
<rect width="4" height="12" transform="translate(75.4844 5.09961) rotate(45)" fill="#D1D5DB"/>
</g>
<g opacity="0.5">
<rect width="4" height="33.4756" transform="translate(89.1289 3.45801) rotate(45)" fill="#D1D5DB"/>
</g>
<g opacity="0.5">
<rect width="4" height="12" transform="translate(87.4844 17.0996) rotate(45)" fill="#D1D5DB"/>
</g>
</g>
<g clip-path="url(#clip39_129_16196)">
<g opacity="0.5">
<rect width="4" height="12" transform="translate(87.4844 5.09961) rotate(45)" fill="#D1D5DB"/>
</g>
<g opacity="0.5">
<rect width="4" height="33.4756" transform="translate(101.129 3.45801) rotate(45)" fill="#D1D5DB"/>
</g>
<g opacity="0.5">
<rect width="4" height="12" transform="translate(99.4844 17.0996) rotate(45)" fill="#D1D5DB"/>
</g>
</g>
<g clip-path="url(#clip40_129_16196)">
<g opacity="0.5">
<rect width="4" height="12" transform="translate(99.4844 5.09961) rotate(45)" fill="#D1D5DB"/>
</g>
<g opacity="0.5">
<rect width="4" height="33.4756" transform="translate(113.129 3.45801) rotate(45)" fill="#D1D5DB"/>
</g>
<g opacity="0.5">
<rect width="4" height="12" transform="translate(111.484 17.0996) rotate(45)" fill="#D1D5DB"/>
</g>
</g>
<g clip-path="url(#clip41_129_16196)">
<g opacity="0.5">
<rect width="4" height="12" transform="translate(111.484 5.09961) rotate(45)" fill="#D1D5DB"/>
</g>
<g opacity="0.5">
<rect width="4" height="33.4756" transform="translate(125.129 3.45801) rotate(45)" fill="#D1D5DB"/>
</g>
<g opacity="0.5">
<rect width="4" height="12" transform="translate(123.484 17.0996) rotate(45)" fill="#D1D5DB"/>
</g>
</g>
<g clip-path="url(#clip42_129_16196)">
<g opacity="0.5">
<rect width="4" height="12" transform="translate(123.484 5.09961) rotate(45)" fill="#D1D5DB"/>
</g>
<g opacity="0.5">
<rect width="4" height="33.4756" transform="translate(137.129 3.45801) rotate(45)" fill="#D1D5DB"/>
</g>
<g opacity="0.5">
<rect width="4" height="12" transform="translate(135.484 17.0996) rotate(45)" fill="#D1D5DB"/>
</g>
</g>
<g clip-path="url(#clip43_129_16196)">
<g opacity="0.5">
<rect width="4" height="12" transform="translate(135.484 5.09961) rotate(45)" fill="#D1D5DB"/>
</g>
<g opacity="0.5">
<rect width="4" height="33.4756" transform="translate(149.129 3.45801) rotate(45)" fill="#D1D5DB"/>
</g>
<g opacity="0.5">
<rect width="4" height="12" transform="translate(147.484 17.0996) rotate(45)" fill="#D1D5DB"/>
</g>
</g>
<g clip-path="url(#clip44_129_16196)">
<g opacity="0.5">
<rect width="4" height="12" transform="translate(147.484 5.09961) rotate(45)" fill="#D1D5DB"/>
</g>
<g opacity="0.5">
<rect width="4" height="33.4756" transform="translate(161.129 3.45801) rotate(45)" fill="#D1D5DB"/>
</g>
<g opacity="0.5">
<rect width="4" height="12" transform="translate(159.484 17.0996) rotate(45)" fill="#D1D5DB"/>
</g>
</g>
<g clip-path="url(#clip45_129_16196)">
<g opacity="0.5">
<rect width="4" height="12" transform="translate(159.484 5.09961) rotate(45)" fill="#D1D5DB"/>
</g>
<g opacity="0.5">
<rect width="4" height="33.4756" transform="translate(173.129 3.45801) rotate(45)" fill="#D1D5DB"/>
</g>
<g opacity="0.5">
<rect width="4" height="12" transform="translate(171.484 17.0996) rotate(45)" fill="#D1D5DB"/>
</g>
</g>
<g clip-path="url(#clip46_129_16196)">
<g opacity="0.5">
<rect width="4" height="12" transform="translate(171.484 5.09961) rotate(45)" fill="#D1D5DB"/>
</g>
<g opacity="0.5">
<rect width="4" height="33.4756" transform="translate(185.129 3.45801) rotate(45)" fill="#D1D5DB"/>
</g>
<g opacity="0.5">
<rect width="4" height="12" transform="translate(183.484 17.0996) rotate(45)" fill="#D1D5DB"/>
</g>
</g>
<g clip-path="url(#clip47_129_16196)">
<g opacity="0.5">
<rect width="4" height="12" transform="translate(183.484 5.09961) rotate(45)" fill="#D1D5DB"/>
</g>
<g opacity="0.5">
<rect width="4" height="33.4756" transform="translate(197.129 3.45801) rotate(45)" fill="#D1D5DB"/>
</g>
<g opacity="0.5">
<rect width="4" height="12" transform="translate(195.484 17.0996) rotate(45)" fill="#D1D5DB"/>
</g>
</g>
<g clip-path="url(#clip48_129_16196)">
<g opacity="0.5">
<rect width="4" height="12" transform="translate(195.484 5.09961) rotate(45)" fill="#D1D5DB"/>
</g>
<g opacity="0.5">
<rect width="4" height="33.4756" transform="translate(209.129 3.45801) rotate(45)" fill="#D1D5DB"/>
</g>
<g opacity="0.5">
<rect width="4" height="12" transform="translate(207.484 17.0996) rotate(45)" fill="#D1D5DB"/>
</g>
</g>
<g clip-path="url(#clip49_129_16196)">
<g opacity="0.5">
<rect width="4" height="12" transform="translate(207.484 5.09961) rotate(45)" fill="#D1D5DB"/>
</g>
<g opacity="0.5">
<rect width="4" height="33.4756" transform="translate(221.129 3.45801) rotate(45)" fill="#D1D5DB"/>
</g>
<g opacity="0.5">
<rect width="4" height="12" transform="translate(219.484 17.0996) rotate(45)" fill="#D1D5DB"/>
</g>
</g>
<g clip-path="url(#clip50_129_16196)">
<g opacity="0.5">
<rect width="4" height="12" transform="translate(219.484 5.09961) rotate(45)" fill="#D1D5DB"/>
</g>
<g opacity="0.5">
<rect width="4" height="33.4756" transform="translate(233.129 3.45801) rotate(45)" fill="#D1D5DB"/>
</g>
<g opacity="0.5">
<rect width="4" height="12" transform="translate(231.484 17.0996) rotate(45)" fill="#D1D5DB"/>
</g>
</g>
<g clip-path="url(#clip51_129_16196)">
<g opacity="0.5">
<rect width="4" height="12" transform="translate(231.484 5.09961) rotate(45)" fill="#D1D5DB"/>
</g>
<g opacity="0.5">
<rect width="4" height="33.4756" transform="translate(245.129 3.45801) rotate(45)" fill="#D1D5DB"/>
</g>
<g opacity="0.5">
<rect width="4" height="12" transform="translate(243.484 17.0996) rotate(45)" fill="#D1D5DB"/>
</g>
</g>
<g clip-path="url(#clip52_129_16196)">
<g opacity="0.5">
<rect width="4" height="12" transform="translate(243.484 5.09961) rotate(45)" fill="#D1D5DB"/>
</g>
<g opacity="0.5">
<rect width="4" height="33.4756" transform="translate(257.129 3.45801) rotate(45)" fill="#D1D5DB"/>
</g>
<g opacity="0.5">
<rect width="4" height="12" transform="translate(255.484 17.0996) rotate(45)" fill="#D1D5DB"/>
</g>
</g>
<g clip-path="url(#clip53_129_16196)">
<g opacity="0.5">
<rect width="4" height="12" transform="translate(255.484 5.09961) rotate(45)" fill="#D1D5DB"/>
</g>
<g opacity="0.5">
<rect width="4" height="33.4756" transform="translate(269.129 3.45801) rotate(45)" fill="#D1D5DB"/>
</g>
<g opacity="0.5">
<rect width="4" height="12" transform="translate(267.484 17.0996) rotate(45)" fill="#D1D5DB"/>
</g>
</g>
<g clip-path="url(#clip54_129_16196)">
<g opacity="0.5">
<rect width="4" height="12" transform="translate(267.484 5.09961) rotate(45)" fill="#D1D5DB"/>
</g>
<g opacity="0.5">
<rect width="4" height="33.4756" transform="translate(281.129 3.45801) rotate(45)" fill="#D1D5DB"/>
</g>
<g opacity="0.5">
<rect width="4" height="12" transform="translate(279.484 17.0996) rotate(45)" fill="#D1D5DB"/>
</g>
</g>
<g clip-path="url(#clip55_129_16196)">
<g opacity="0.5">
<rect width="4" height="12" transform="translate(279.484 5.09961) rotate(45)" fill="#D1D5DB"/>
</g>
<g opacity="0.5">
<rect width="4" height="33.4756" transform="translate(293.129 3.45801) rotate(45)" fill="#D1D5DB"/>
</g>
<g opacity="0.5">
<rect width="4" height="12" transform="translate(291.484 17.0996) rotate(45)" fill="#D1D5DB"/>
</g>
</g>
<g clip-path="url(#clip56_129_16196)">
<g opacity="0.5">
<rect width="4" height="12" transform="translate(291.484 5.09961) rotate(45)" fill="#D1D5DB"/>
</g>
<g opacity="0.5">
<rect width="4" height="33.4756" transform="translate(305.129 3.45801) rotate(45)" fill="#D1D5DB"/>
</g>
<g opacity="0.5">
<rect width="4" height="12" transform="translate(303.484 17.0996) rotate(45)" fill="#D1D5DB"/>
</g>
</g>
<g clip-path="url(#clip57_129_16196)">
<g opacity="0.5">
<rect width="4" height="12" transform="translate(303.484 5.09961) rotate(45)" fill="#D1D5DB"/>
</g>
<g opacity="0.5">
<rect width="4" height="33.4756" transform="translate(317.129 3.45801) rotate(45)" fill="#D1D5DB"/>
</g>
<g opacity="0.5">
<rect width="4" height="12" transform="translate(315.484 17.0996) rotate(45)" fill="#D1D5DB"/>
</g>
</g>
<g clip-path="url(#clip58_129_16196)">
<g opacity="0.5">
<rect width="4" height="12" transform="translate(315.484 5.09961) rotate(45)" fill="#D1D5DB"/>
</g>
<g opacity="0.5">
<rect width="4" height="33.4756" transform="translate(329.129 3.45801) rotate(45)" fill="#D1D5DB"/>
</g>
<g opacity="0.5">
<rect width="4" height="12" transform="translate(327.484 17.0996) rotate(45)" fill="#D1D5DB"/>
</g>
</g>
<g clip-path="url(#clip59_129_16196)">
<g opacity="0.5">
<rect width="4" height="12" transform="translate(327.484 5.09961) rotate(45)" fill="#D1D5DB"/>
</g>
<g opacity="0.5">
<rect width="4" height="33.4756" transform="translate(341.129 3.45801) rotate(45)" fill="#D1D5DB"/>
</g>
<g opacity="0.5">
<rect width="4" height="12" transform="translate(339.484 17.0996) rotate(45)" fill="#D1D5DB"/>
</g>
</g>
<g clip-path="url(#clip60_129_16196)">
<g opacity="0.5">
<rect width="4" height="12" transform="translate(339.484 5.09961) rotate(45)" fill="#D1D5DB"/>
</g>
<g opacity="0.5">
<rect width="4" height="33.4756" transform="translate(353.129 3.45801) rotate(45)" fill="#D1D5DB"/>
</g>
<g opacity="0.5">
<rect width="4" height="12" transform="translate(351.484 17.0996) rotate(45)" fill="#D1D5DB"/>
</g>
</g>
<g clip-path="url(#clip61_129_16196)">
<g opacity="0.5">
<rect width="4" height="12" transform="translate(351.484 5.09961) rotate(45)" fill="#D1D5DB"/>
</g>
<g opacity="0.5">
<rect width="4" height="33.4756" transform="translate(365.129 3.45801) rotate(45)" fill="#D1D5DB"/>
</g>
<g opacity="0.5">
<rect width="4" height="12" transform="translate(363.484 17.0996) rotate(45)" fill="#D1D5DB"/>
</g>
</g>
<g clip-path="url(#clip62_129_16196)">
<g opacity="0.5">
<rect width="4" height="12" transform="translate(363.484 5.09961) rotate(45)" fill="#D1D5DB"/>
</g>
<g opacity="0.5">
<rect width="4" height="33.4756" transform="translate(377.129 3.45801) rotate(45)" fill="#D1D5DB"/>
</g>
<g opacity="0.5">
<rect width="4" height="12" transform="translate(375.484 17.0996) rotate(45)" fill="#D1D5DB"/>
</g>
</g>
</g>
<defs>
<clipPath id="clip0_129_16196">
<rect width="372" height="24" fill="white"/>
</clipPath>
<clipPath id="clip1_129_16196">
<rect width="12" height="12" fill="white"/>
</clipPath>
<clipPath id="clip2_129_16196">
<rect width="12" height="12" fill="white" transform="translate(12)"/>
</clipPath>
<clipPath id="clip3_129_16196">
<rect width="12" height="12" fill="white" transform="translate(24)"/>
</clipPath>
<clipPath id="clip4_129_16196">
<rect width="12" height="12" fill="white" transform="translate(36)"/>
</clipPath>
<clipPath id="clip5_129_16196">
<rect width="12" height="12" fill="white" transform="translate(48)"/>
</clipPath>
<clipPath id="clip6_129_16196">
<rect width="12" height="12" fill="white" transform="translate(60)"/>
</clipPath>
<clipPath id="clip7_129_16196">
<rect width="12" height="12" fill="white" transform="translate(72)"/>
</clipPath>
<clipPath id="clip8_129_16196">
<rect width="12" height="12" fill="white" transform="translate(84)"/>
</clipPath>
<clipPath id="clip9_129_16196">
<rect width="12" height="12" fill="white" transform="translate(96)"/>
</clipPath>
<clipPath id="clip10_129_16196">
<rect width="12" height="12" fill="white" transform="translate(108)"/>
</clipPath>
<clipPath id="clip11_129_16196">
<rect width="12" height="12" fill="white" transform="translate(120)"/>
</clipPath>
<clipPath id="clip12_129_16196">
<rect width="12" height="12" fill="white" transform="translate(132)"/>
</clipPath>
<clipPath id="clip13_129_16196">
<rect width="12" height="12" fill="white" transform="translate(144)"/>
</clipPath>
<clipPath id="clip14_129_16196">
<rect width="12" height="12" fill="white" transform="translate(156)"/>
</clipPath>
<clipPath id="clip15_129_16196">
<rect width="12" height="12" fill="white" transform="translate(168)"/>
</clipPath>
<clipPath id="clip16_129_16196">
<rect width="12" height="12" fill="white" transform="translate(180)"/>
</clipPath>
<clipPath id="clip17_129_16196">
<rect width="12" height="12" fill="white" transform="translate(192)"/>
</clipPath>
<clipPath id="clip18_129_16196">
<rect width="12" height="12" fill="white" transform="translate(204)"/>
</clipPath>
<clipPath id="clip19_129_16196">
<rect width="12" height="12" fill="white" transform="translate(216)"/>
</clipPath>
<clipPath id="clip20_129_16196">
<rect width="12" height="12" fill="white" transform="translate(228)"/>
</clipPath>
<clipPath id="clip21_129_16196">
<rect width="12" height="12" fill="white" transform="translate(240)"/>
</clipPath>
<clipPath id="clip22_129_16196">
<rect width="12" height="12" fill="white" transform="translate(252)"/>
</clipPath>
<clipPath id="clip23_129_16196">
<rect width="12" height="12" fill="white" transform="translate(264)"/>
</clipPath>
<clipPath id="clip24_129_16196">
<rect width="12" height="12" fill="white" transform="translate(276)"/>
</clipPath>
<clipPath id="clip25_129_16196">
<rect width="12" height="12" fill="white" transform="translate(288)"/>
</clipPath>
<clipPath id="clip26_129_16196">
<rect width="12" height="12" fill="white" transform="translate(300)"/>
</clipPath>
<clipPath id="clip27_129_16196">
<rect width="12" height="12" fill="white" transform="translate(312)"/>
</clipPath>
<clipPath id="clip28_129_16196">
<rect width="12" height="12" fill="white" transform="translate(324)"/>
</clipPath>
<clipPath id="clip29_129_16196">
<rect width="12" height="12" fill="white" transform="translate(336)"/>
</clipPath>
<clipPath id="clip30_129_16196">
<rect width="12" height="12" fill="white" transform="translate(348)"/>
</clipPath>
<clipPath id="clip31_129_16196">
<rect width="12" height="12" fill="white" transform="translate(360)"/>
</clipPath>
<clipPath id="clip32_129_16196">
<rect width="12" height="12" fill="white" transform="translate(0 12)"/>
</clipPath>
<clipPath id="clip33_129_16196">
<rect width="12" height="12" fill="white" transform="translate(12 12)"/>
</clipPath>
<clipPath id="clip34_129_16196">
<rect width="12" height="12" fill="white" transform="translate(24 12)"/>
</clipPath>
<clipPath id="clip35_129_16196">
<rect width="12" height="12" fill="white" transform="translate(36 12)"/>
</clipPath>
<clipPath id="clip36_129_16196">
<rect width="12" height="12" fill="white" transform="translate(48 12)"/>
</clipPath>
<clipPath id="clip37_129_16196">
<rect width="12" height="12" fill="white" transform="translate(60 12)"/>
</clipPath>
<clipPath id="clip38_129_16196">
<rect width="12" height="12" fill="white" transform="translate(72 12)"/>
</clipPath>
<clipPath id="clip39_129_16196">
<rect width="12" height="12" fill="white" transform="translate(84 12)"/>
</clipPath>
<clipPath id="clip40_129_16196">
<rect width="12" height="12" fill="white" transform="translate(96 12)"/>
</clipPath>
<clipPath id="clip41_129_16196">
<rect width="12" height="12" fill="white" transform="translate(108 12)"/>
</clipPath>
<clipPath id="clip42_129_16196">
<rect width="12" height="12" fill="white" transform="translate(120 12)"/>
</clipPath>
<clipPath id="clip43_129_16196">
<rect width="12" height="12" fill="white" transform="translate(132 12)"/>
</clipPath>
<clipPath id="clip44_129_16196">
<rect width="12" height="12" fill="white" transform="translate(144 12)"/>
</clipPath>
<clipPath id="clip45_129_16196">
<rect width="12" height="12" fill="white" transform="translate(156 12)"/>
</clipPath>
<clipPath id="clip46_129_16196">
<rect width="12" height="12" fill="white" transform="translate(168 12)"/>
</clipPath>
<clipPath id="clip47_129_16196">
<rect width="12" height="12" fill="white" transform="translate(180 12)"/>
</clipPath>
<clipPath id="clip48_129_16196">
<rect width="12" height="12" fill="white" transform="translate(192 12)"/>
</clipPath>
<clipPath id="clip49_129_16196">
<rect width="12" height="12" fill="white" transform="translate(204 12)"/>
</clipPath>
<clipPath id="clip50_129_16196">
<rect width="12" height="12" fill="white" transform="translate(216 12)"/>
</clipPath>
<clipPath id="clip51_129_16196">
<rect width="12" height="12" fill="white" transform="translate(228 12)"/>
</clipPath>
<clipPath id="clip52_129_16196">
<rect width="12" height="12" fill="white" transform="translate(240 12)"/>
</clipPath>
<clipPath id="clip53_129_16196">
<rect width="12" height="12" fill="white" transform="translate(252 12)"/>
</clipPath>
<clipPath id="clip54_129_16196">
<rect width="12" height="12" fill="white" transform="translate(264 12)"/>
</clipPath>
<clipPath id="clip55_129_16196">
<rect width="12" height="12" fill="white" transform="translate(276 12)"/>
</clipPath>
<clipPath id="clip56_129_16196">
<rect width="12" height="12" fill="white" transform="translate(288 12)"/>
</clipPath>
<clipPath id="clip57_129_16196">
<rect width="12" height="12" fill="white" transform="translate(300 12)"/>
</clipPath>
<clipPath id="clip58_129_16196">
<rect width="12" height="12" fill="white" transform="translate(312 12)"/>
</clipPath>
<clipPath id="clip59_129_16196">
<rect width="12" height="12" fill="white" transform="translate(324 12)"/>
</clipPath>
<clipPath id="clip60_129_16196">
<rect width="12" height="12" fill="white" transform="translate(336 12)"/>
</clipPath>
<clipPath id="clip61_129_16196">
<rect width="12" height="12" fill="white" transform="translate(348 12)"/>
</clipPath>
<clipPath id="clip62_129_16196">
<rect width="12" height="12" fill="white" transform="translate(360 12)"/>
</clipPath>
</defs>
</svg>
