<svg width="58" height="24" viewBox="0 0 58 24" fill="none" xmlns="http://www.w3.org/2000/svg">
<g clip-path="url(#clip0_244_7524)">
<mask id="mask0_244_7524" style="mask-type:alpha" maskUnits="userSpaceOnUse" x="0" y="6" width="58" height="12">
<path d="M2 6C3.10457 6 4 6.89543 4 8V16C4 17.1046 3.10457 18 2 18C0.895431 18 3.22133e-08 17.1046 0 16V8C1.28853e-07 6.89543 0.895431 6 2 6ZM8 6C9.10457 6 10 6.89543 10 8V16C10 17.1046 9.10457 18 8 18C6.89543 18 6 17.1046 6 16V8C6 6.89543 6.89543 6 8 6ZM14 6C15.1046 6 16 6.89543 16 8V16C16 17.1046 15.1046 18 14 18C12.8954 18 12 17.1046 12 16V8C12 6.89543 12.8954 6 14 6ZM20 6C21.1046 6 22 6.89543 22 8V16C22 17.1046 21.1046 18 20 18C18.8954 18 18 17.1046 18 16V8C18 6.89543 18.8954 6 20 6ZM26 6C27.1046 6 28 6.89543 28 8V16C28 17.1046 27.1046 18 26 18C24.8954 18 24 17.1046 24 16V8C24 6.89543 24.8954 6 26 6ZM32 6C33.1046 6 34 6.89543 34 8V16C34 17.1046 33.1046 18 32 18C30.8954 18 30 17.1046 30 16V8C30 6.89543 30.8954 6 32 6ZM38 6C39.1046 6 40 6.89543 40 8V16C40 17.1046 39.1046 18 38 18C36.8954 18 36 17.1046 36 16V8C36 6.89543 36.8954 6 38 6ZM44 6C45.1046 6 46 6.89543 46 8V16C46 17.1046 45.1046 18 44 18C42.8954 18 42 17.1046 42 16V8C42 6.89543 42.8954 6 44 6ZM50 6C51.1046 6 52 6.89543 52 8V16C52 17.1046 51.1046 18 50 18C48.8954 18 48 17.1046 48 16V8C48 6.89543 48.8954 6 50 6ZM56 6C57.1046 6 58 6.89543 58 8V16C58 17.1046 57.1046 18 56 18C54.8954 18 54 17.1046 54 16V8C54 6.89543 54.8954 6 56 6Z" fill="#FF0000"/>
</mask>
<g mask="url(#mask0_244_7524)">
<path d="M0 0H58V24H0V0Z" fill="url(#paint0_linear_244_7524)"/>
</g>
<g clip-path="url(#clip1_244_7524)">
<mask id="mask1_244_7524" style="mask-type:alpha" maskUnits="userSpaceOnUse" x="0" y="0" width="58" height="24">
<rect width="58" height="24" fill="#FF0000"/>
</mask>
<g mask="url(#mask1_244_7524)">
<path fill-rule="evenodd" clip-rule="evenodd" d="M2 6C3.10457 6 4 6.89543 4 8V16C4 17.1046 3.10457 18 2 18C0.89543 18 0 17.1046 0 16V8C0 6.89543 0.895432 6 2 6ZM8 6C9.10457 6 10 6.89543 10 8V16C10 17.1046 9.10457 18 8 18C6.89543 18 6 17.1046 6 16V8C6 6.89543 6.89543 6 8 6ZM14 6C15.1046 6 16 6.89543 16 8V16C16 17.1046 15.1046 18 14 18C12.8954 18 12 17.1046 12 16V8C12 6.89543 12.8954 6 14 6ZM20 6C21.1046 6 22 6.89543 22 8V16C22 17.1046 21.1046 18 20 18C18.8954 18 18 17.1046 18 16V8C18 6.89543 18.8954 6 20 6ZM26 6C27.1046 6 28 6.89543 28 8V16C28 17.1046 27.1046 18 26 18C24.8954 18 24 17.1046 24 16V8C24 6.89543 24.8954 6 26 6ZM32 6C33.1046 6 34 6.89543 34 8V16C34 17.1046 33.1046 18 32 18C30.8954 18 30 17.1046 30 16V8C30 6.89543 30.8954 6 32 6ZM38 6C39.1046 6 40 6.89543 40 8V16C40 17.1046 39.1046 18 38 18C36.8954 18 36 17.1046 36 16V8C36 6.89543 36.8954 6 38 6ZM44 6C45.1046 6 46 6.89543 46 8V16C46 17.1046 45.1046 18 44 18C42.8954 18 42 17.1046 42 16V8C42 6.89543 42.8954 6 44 6ZM50 6C51.1046 6 52 6.89543 52 8V16C52 17.1046 51.1046 18 50 18C48.8954 18 48 17.1046 48 16V8C48 6.89543 48.8954 6 50 6ZM56 6C57.1046 6 58 6.89543 58 8V16C58 17.1046 57.1046 18 56 18C54.8954 18 54 17.1046 54 16V8C54 6.89543 54.8954 6 56 6Z" fill="#E5E7EB"/>
</g>
</g>
</g>
<defs>
<linearGradient id="paint0_linear_244_7524" x1="0" y1="12" x2="58" y2="12" gradientUnits="userSpaceOnUse">
<stop stop-color="#EF4444"/>
<stop offset="0.25" stop-color="#FB923C"/>
<stop offset="0.6" stop-color="#86EFAC"/>
</linearGradient>
<clipPath id="clip0_244_7524">
<rect width="58" height="24" fill="white"/>
</clipPath>
<clipPath id="clip1_244_7524">
<rect width="29" height="24" fill="white" transform="translate(29)"/>
</clipPath>
</defs>
</svg>
