<svg width="48" height="48" viewBox="0 0 48 48" fill="none" xmlns="http://www.w3.org/2000/svg">
<g clip-path="url(#clip0_154_32295)">
<rect width="48" height="48" rx="11.25" fill="url(#paint0_linear_154_32295)"/>
<g filter="url(#filter0_i_154_32295)">
<g clip-path="url(#clip1_154_32295)">
<rect x="0.9375" y="0.9375" width="46.125" height="46.125" rx="10.3125" fill="url(#paint1_linear_154_32295)"/>
<rect width="48" height="48" rx="11.25" fill="black" fill-opacity="0.01"/>
<g filter="url(#filter2_ddddiii_154_32295)">
<path fill-rule="evenodd" clip-rule="evenodd" d="M10.082 12.9357C10.082 11.7966 11.0132 10.8539 12.1329 11.0635C12.8911 11.2055 13.6344 11.4261 14.3506 11.7227C15.7041 12.2834 16.9347 13.1047 17.9707 14.1407C19.0066 15.1766 19.828 16.4073 20.3887 17.7608C20.4124 17.8181 20.4664 17.8565 20.5284 17.8565H27.4896C27.7743 17.8565 28.0258 17.6772 28.1348 17.4141C28.6671 16.129 29.4471 14.9612 30.4307 13.9776C31.4144 12.9939 32.5829 12.2131 33.8682 11.6807C34.5161 11.4124 35.1875 11.2098 35.8723 11.0749C36.9899 10.8548 37.9219 11.7985 37.9219 12.9376V17.8121C37.9219 17.8366 37.9418 17.8565 37.9663 17.8565C37.9908 17.8565 38.0107 17.8764 38.0107 17.9009V26.544C38.0107 27.5831 37.2314 28.4437 36.2263 28.7077C31.794 29.872 28.2254 33.1676 26.6809 37.4323C26.3545 38.3337 25.5375 39.001 24.5787 39.001H23.6009C22.6422 39.001 21.8252 38.3337 21.4988 37.4323C19.9544 33.1677 16.3862 29.8723 11.9542 28.7078C10.9492 28.4437 10.1699 27.5832 10.1699 26.544V22.0733C10.1699 22.049 10.1502 22.0294 10.126 22.0294C10.1017 22.0294 10.082 22.0097 10.082 21.9854V12.9357Z" fill="#E3E2D7"/>
</g>
<g filter="url(#filter3_f_154_32295)">
<path d="M-1.24071 30.6562C-8.48383 21.2066 -25.1232 53.8125 21.0068 53.8125C70.4032 53.8125 55.2698 21.735 48.598 30.6562C43.9706 36.8437 48.8455 41.8125 23.533 41.8125C-1.77941 41.8125 4.22057 37.7812 -1.24071 30.6562Z" fill="#E8965F"/>
</g>
<g filter="url(#filter4_f_154_32295)" style="mix-blend-mode:plus-lighter">
<path d="M8.93827 37.4488C4.73843 35.6681 -4.9097 41.8125 21.8382 41.8125C50.4801 41.8125 41.7052 35.7677 37.8366 37.4488C35.1535 38.6148 37.9802 39.5512 23.303 39.5512C8.62591 39.5512 12.1049 38.7915 8.93827 37.4488Z" fill="#FF0000" fill-opacity="0.4"/>
</g>
<g filter="url(#filter5_i_154_32295)">
<rect x="0.9375" y="0.9375" width="46.125" height="46.125" rx="10.3125" fill="#FFA330" fill-opacity="0.01"/>
</g>
<g filter="url(#filter6_i_154_32295)">
<rect x="0.9375" y="0.9375" width="46.125" height="46.125" rx="10.3125" fill="#FFA330" fill-opacity="0.01"/>
</g>
</g>
</g>
</g>
<defs>
<filter id="filter0_i_154_32295" x="0.9375" y="0.9375" width="46.125" height="46.875" filterUnits="userSpaceOnUse" color-interpolation-filters="sRGB">
<feFlood flood-opacity="0" result="BackgroundImageFix"/>
<feBlend mode="normal" in="SourceGraphic" in2="BackgroundImageFix" result="shape"/>
<feColorMatrix in="SourceAlpha" type="matrix" values="0 0 0 0 0 0 0 0 0 0 0 0 0 0 0 0 0 0 127 0" result="hardAlpha"/>
<feOffset dy="0.75"/>
<feGaussianBlur stdDeviation="0.375"/>
<feComposite in2="hardAlpha" operator="arithmetic" k2="-1" k3="1"/>
<feColorMatrix type="matrix" values="0 0 0 0 1 0 0 0 0 0.846245 0 0 0 0 0.654391 0 0 0 1 0"/>
<feBlend mode="normal" in2="shape" result="effect1_innerShadow_154_32295"/>
</filter>
<filter id="filter2_ddddiii_154_32295" x="5.58203" y="10.2842" width="35.8047" height="42.7793" filterUnits="userSpaceOnUse" color-interpolation-filters="sRGB">
<feFlood flood-opacity="0" result="BackgroundImageFix"/>
<feColorMatrix in="SourceAlpha" type="matrix" values="0 0 0 0 0 0 0 0 0 0 0 0 0 0 0 0 0 0 127 0" result="hardAlpha"/>
<feOffset dy="0.5625"/>
<feGaussianBlur stdDeviation="0.65625"/>
<feColorMatrix type="matrix" values="0 0 0 0 0 0 0 0 0 0 0 0 0 0 0 0 0 0 0.1 0"/>
<feBlend mode="normal" in2="BackgroundImageFix" result="effect1_dropShadow_154_32295"/>
<feColorMatrix in="SourceAlpha" type="matrix" values="0 0 0 0 0 0 0 0 0 0 0 0 0 0 0 0 0 0 127 0" result="hardAlpha"/>
<feOffset dx="-0.1875" dy="2.4375"/>
<feGaussianBlur stdDeviation="1.21875"/>
<feColorMatrix type="matrix" values="0 0 0 0 0 0 0 0 0 0 0 0 0 0 0 0 0 0 0.09 0"/>
<feBlend mode="normal" in2="effect1_dropShadow_154_32295" result="effect2_dropShadow_154_32295"/>
<feColorMatrix in="SourceAlpha" type="matrix" values="0 0 0 0 0 0 0 0 0 0 0 0 0 0 0 0 0 0 127 0" result="hardAlpha"/>
<feOffset dx="-0.375" dy="5.625"/>
<feGaussianBlur stdDeviation="1.6875"/>
<feColorMatrix type="matrix" values="0 0 0 0 0 0 0 0 0 0 0 0 0 0 0 0 0 0 0.05 0"/>
<feBlend mode="normal" in2="effect2_dropShadow_154_32295" result="effect3_dropShadow_154_32295"/>
<feColorMatrix in="SourceAlpha" type="matrix" values="0 0 0 0 0 0 0 0 0 0 0 0 0 0 0 0 0 0 127 0" result="hardAlpha"/>
<feOffset dx="-0.5625" dy="10.125"/>
<feGaussianBlur stdDeviation="1.96875"/>
<feColorMatrix type="matrix" values="0 0 0 0 0 0 0 0 0 0 0 0 0 0 0 0 0 0 0.01 0"/>
<feBlend mode="normal" in2="effect3_dropShadow_154_32295" result="effect4_dropShadow_154_32295"/>
<feBlend mode="normal" in="SourceGraphic" in2="effect4_dropShadow_154_32295" result="shape"/>
<feColorMatrix in="SourceAlpha" type="matrix" values="0 0 0 0 0 0 0 0 0 0 0 0 0 0 0 0 0 0 127 0" result="hardAlpha"/>
<feOffset dy="-1.125"/>
<feGaussianBlur stdDeviation="0.375"/>
<feComposite in2="hardAlpha" operator="arithmetic" k2="-1" k3="1"/>
<feColorMatrix type="matrix" values="0 0 0 0 0.796969 0 0 0 0 0.796969 0 0 0 0 0.796969 0 0 0 1 0"/>
<feBlend mode="normal" in2="shape" result="effect5_innerShadow_154_32295"/>
<feColorMatrix in="SourceAlpha" type="matrix" values="0 0 0 0 0 0 0 0 0 0 0 0 0 0 0 0 0 0 127 0" result="hardAlpha"/>
<feOffset dy="-0.5625"/>
<feGaussianBlur stdDeviation="0.375"/>
<feComposite in2="hardAlpha" operator="arithmetic" k2="-1" k3="1"/>
<feColorMatrix type="matrix" values="0 0 0 0 0.785419 0 0 0 0 0.493922 0 0 0 0 0.15796 0 0 0 1 0"/>
<feBlend mode="normal" in2="effect5_innerShadow_154_32295" result="effect6_innerShadow_154_32295"/>
<feColorMatrix in="SourceAlpha" type="matrix" values="0 0 0 0 0 0 0 0 0 0 0 0 0 0 0 0 0 0 127 0" result="hardAlpha"/>
<feOffset dy="4.125"/>
<feGaussianBlur stdDeviation="2.0625"/>
<feComposite in2="hardAlpha" operator="arithmetic" k2="-1" k3="1"/>
<feColorMatrix type="matrix" values="0 0 0 0 1 0 0 0 0 1 0 0 0 0 1 0 0 0 1 0"/>
<feBlend mode="normal" in2="effect6_innerShadow_154_32295" result="effect7_innerShadow_154_32295"/>
</filter>
<filter id="filter3_f_154_32295" x="-16.9395" y="22.1875" width="79.791" height="38.375" filterUnits="userSpaceOnUse" color-interpolation-filters="sRGB">
<feFlood flood-opacity="0" result="BackgroundImageFix"/>
<feBlend mode="normal" in="SourceGraphic" in2="BackgroundImageFix" result="shape"/>
<feGaussianBlur stdDeviation="3.375" result="effect1_foregroundBlur_154_32295"/>
</filter>
<filter id="filter4_f_154_32295" x="-3" y="30.375" width="51.9375" height="18.1875" filterUnits="userSpaceOnUse" color-interpolation-filters="sRGB">
<feFlood flood-opacity="0" result="BackgroundImageFix"/>
<feBlend mode="normal" in="SourceGraphic" in2="BackgroundImageFix" result="shape"/>
<feGaussianBlur stdDeviation="3.375" result="effect1_foregroundBlur_154_32295"/>
</filter>
<filter id="filter5_i_154_32295" x="0.9375" y="0.9375" width="46.125" height="46.875" filterUnits="userSpaceOnUse" color-interpolation-filters="sRGB">
<feFlood flood-opacity="0" result="BackgroundImageFix"/>
<feBlend mode="normal" in="SourceGraphic" in2="BackgroundImageFix" result="shape"/>
<feColorMatrix in="SourceAlpha" type="matrix" values="0 0 0 0 0 0 0 0 0 0 0 0 0 0 0 0 0 0 127 0" result="hardAlpha"/>
<feOffset dy="0.75"/>
<feGaussianBlur stdDeviation="1.5"/>
<feComposite in2="hardAlpha" operator="arithmetic" k2="-1" k3="1"/>
<feColorMatrix type="matrix" values="0 0 0 0 1 0 0 0 0 0.564706 0 0 0 0 0.00392157 0 0 0 0.5 0"/>
<feBlend mode="normal" in2="shape" result="effect1_innerShadow_154_32295"/>
</filter>
<filter id="filter6_i_154_32295" x="0.9375" y="-0.375" width="46.125" height="47.4375" filterUnits="userSpaceOnUse" color-interpolation-filters="sRGB">
<feFlood flood-opacity="0" result="BackgroundImageFix"/>
<feBlend mode="normal" in="SourceGraphic" in2="BackgroundImageFix" result="shape"/>
<feColorMatrix in="SourceAlpha" type="matrix" values="0 0 0 0 0 0 0 0 0 0 0 0 0 0 0 0 0 0 127 0" result="hardAlpha"/>
<feOffset dy="-1.3125"/>
<feGaussianBlur stdDeviation="0.65625"/>
<feComposite in2="hardAlpha" operator="arithmetic" k2="-1" k3="1"/>
<feColorMatrix type="matrix" values="0 0 0 0 1 0 0 0 0 0.384314 0 0 0 0 0.00392157 0 0 0 0.5 0"/>
<feBlend mode="normal" in2="shape" result="effect1_innerShadow_154_32295"/>
</filter>
<linearGradient id="paint0_linear_154_32295" x1="36.0938" y1="-20.0625" x2="8.71875" y2="59.3438" gradientUnits="userSpaceOnUse">
<stop stop-color="#FE6A01"/>
<stop offset="1" stop-color="#C33902"/>
</linearGradient>
<linearGradient id="paint1_linear_154_32295" x1="24" y1="0.9375" x2="24" y2="47.0625" gradientUnits="userSpaceOnUse">
<stop stop-color="#C33902"/>
<stop offset="1" stop-color="#CE4007"/>
</linearGradient>
<clipPath id="clip0_154_32295">
<rect width="48" height="48" rx="11.25" fill="white"/>
</clipPath>
<clipPath id="clip1_154_32295">
<rect x="0.9375" y="0.9375" width="46.125" height="46.125" rx="10.3125" fill="white"/>
</clipPath>
</defs>
</svg>
