<svg width="48" height="48" viewBox="0 0 48 48" fill="none" xmlns="http://www.w3.org/2000/svg">
<g clip-path="url(#clip0_154_32296)">
<rect width="48" height="48" rx="11.25" fill="url(#paint0_linear_154_32296)"/>
<g filter="url(#filter0_i_154_32296)">
<g clip-path="url(#clip1_154_32296)">
<rect x="0.9375" y="0.9375" width="46.125" height="46.125" rx="10.3125" fill="url(#paint1_linear_154_32296)"/>
<g opacity="0.3" filter="url(#filter1_i_154_32296)">
<rect x="0.9375" y="0.9375" width="46.125" height="46.125" rx="10.3125" fill="#5937C9" fill-opacity="0.01"/>
</g>
<g filter="url(#filter2_f_154_32296)">
<ellipse cx="23.9062" cy="80.3438" rx="55.0312" ry="34.7812" fill="#FF7952"/>
</g>
<g filter="url(#filter3_dddi_154_32296)">
<path d="M25.3701 34.6904C25.6808 34.6904 25.9326 34.9423 25.9326 35.2529V38.2529C25.9326 38.5635 25.6807 38.8154 25.3701 38.8154H22.3701C22.0597 38.8152 21.8077 38.5634 21.8076 38.2529V35.2529C21.8076 34.9424 22.0596 34.6906 22.3701 34.6904H25.3701ZM17.1494 12.2734C17.4601 12.2734 17.7119 12.5253 17.7119 12.8359V16.4014C17.712 16.7119 17.964 16.9637 18.2744 16.9639H22.0264C22.337 16.9639 22.5889 17.2157 22.5889 17.5264V19.7891C22.5889 20.0995 22.8409 20.3514 23.1514 20.3516H24.8496C25.1602 20.3515 25.4121 20.0997 25.4121 19.7891V17.5264C25.4121 17.2157 25.6639 16.9639 25.9746 16.9639H29.7285C30.0391 16.9638 30.291 16.712 30.291 16.4014V12.8359C30.291 12.5253 30.5429 12.2734 30.8535 12.2734H35.166C35.4766 12.2735 35.7285 12.5253 35.7285 12.8359V17.1484C35.7285 17.4591 35.4766 17.7109 35.166 17.7109H31.5996C31.2889 17.7109 31.0371 17.9628 31.0371 18.2734V22.0264C31.0371 22.337 30.7852 22.5888 30.4746 22.5889H28.2129C27.9022 22.5889 27.6504 22.8407 27.6504 23.1514V24.8486C27.6504 25.1593 27.9022 25.4111 28.2129 25.4111H30.4746C30.7852 25.4112 31.0371 25.663 31.0371 25.9736V29.7266C31.0371 30.0372 31.2889 30.2891 31.5996 30.2891H35.166C35.4766 30.2891 35.7285 30.5409 35.7285 30.8516V35.1641C35.7285 35.4747 35.4766 35.7265 35.166 35.7266H30.8535C30.5429 35.7266 30.291 35.4747 30.291 35.1641V31.5986C30.291 31.288 30.0391 31.0362 29.7285 31.0361H25.9746C25.6639 31.0361 25.4121 30.7843 25.4121 30.4736V28.2109C25.4121 27.9003 25.1602 27.6485 24.8496 27.6484H23.1504C22.8398 27.6485 22.5879 27.9003 22.5879 28.2109V30.4736C22.5879 30.7843 22.3361 31.0361 22.0254 31.0361H18.2715C17.9609 31.0362 17.709 31.288 17.709 31.5986V35.1641C17.709 35.4747 17.4571 35.7266 17.1465 35.7266H12.834C12.5234 35.7265 12.2715 35.4747 12.2715 35.1641V30.8516C12.2715 30.5409 12.5234 30.2891 12.834 30.2891H16.4004C16.7111 30.2891 16.9629 30.0372 16.9629 29.7266V25.9736C16.9629 25.663 17.2148 25.4112 17.5254 25.4111H19.7871C20.0978 25.4111 20.3496 25.1593 20.3496 24.8486V23.1406C20.3439 22.8349 20.0952 22.5889 19.7881 22.5889H17.5264C17.2159 22.5887 16.9639 22.3369 16.9639 22.0264V18.2734C16.9639 17.9628 16.712 17.7109 16.4014 17.7109H12.8369C12.5265 17.7107 12.2745 17.4589 12.2744 17.1484V12.8359C12.2744 12.5254 12.5264 12.2736 12.8369 12.2734H17.1494ZM12.7461 22.0684C13.0568 22.0684 13.3086 22.3202 13.3086 22.6309V25.6309C13.3085 25.9415 13.0567 26.1934 12.7461 26.1934H9.74609C9.43565 26.1931 9.18365 25.9413 9.18359 25.6309V22.6309C9.18359 22.3203 9.43561 22.0686 9.74609 22.0684H12.7461ZM38.2539 22.0684C38.5646 22.0684 38.8164 22.3202 38.8164 22.6309V25.6309C38.8164 25.9415 38.5645 26.1934 38.2539 26.1934H35.2539C34.9435 26.1931 34.6915 25.9413 34.6914 25.6309V22.6309C34.6914 22.3203 34.9434 22.0686 35.2539 22.0684H38.2539ZM25.3701 9.18457C25.6808 9.18457 25.9326 9.43641 25.9326 9.74707V12.7471C25.9326 13.0577 25.6807 13.3096 25.3701 13.3096H22.3701C22.0597 13.3094 21.8077 13.0576 21.8076 12.7471V9.74707C21.8076 9.43654 22.0596 9.18478 22.3701 9.18457H25.3701Z" fill="#FAF8FC"/>
</g>
</g>
</g>
</g>
<defs>
<filter id="filter0_i_154_32296" x="0.9375" y="0.9375" width="46.125" height="46.5" filterUnits="userSpaceOnUse" color-interpolation-filters="sRGB">
<feFlood flood-opacity="0" result="BackgroundImageFix"/>
<feBlend mode="normal" in="SourceGraphic" in2="BackgroundImageFix" result="shape"/>
<feColorMatrix in="SourceAlpha" type="matrix" values="0 0 0 0 0 0 0 0 0 0 0 0 0 0 0 0 0 0 127 0" result="hardAlpha"/>
<feOffset dy="0.375"/>
<feGaussianBlur stdDeviation="2.15625"/>
<feComposite in2="hardAlpha" operator="arithmetic" k2="-1" k3="1"/>
<feColorMatrix type="matrix" values="0 0 0 0 0.782827 0 0 0 0 0.399326 0 0 0 0 0.287709 0 0 0 0.7 0"/>
<feBlend mode="normal" in2="shape" result="effect1_innerShadow_154_32296"/>
</filter>
<filter id="filter1_i_154_32296" x="0.9375" y="-0.375" width="46.125" height="47.4375" filterUnits="userSpaceOnUse" color-interpolation-filters="sRGB">
<feFlood flood-opacity="0" result="BackgroundImageFix"/>
<feBlend mode="normal" in="SourceGraphic" in2="BackgroundImageFix" result="shape"/>
<feColorMatrix in="SourceAlpha" type="matrix" values="0 0 0 0 0 0 0 0 0 0 0 0 0 0 0 0 0 0 127 0" result="hardAlpha"/>
<feOffset dy="-1.3125"/>
<feGaussianBlur stdDeviation="0.65625"/>
<feComposite in2="hardAlpha" operator="arithmetic" k2="-1" k3="1"/>
<feColorMatrix type="matrix" values="0 0 0 0 0.988235 0 0 0 0 1 0 0 0 0 0.945098 0 0 0 1 0"/>
<feBlend mode="normal" in2="shape" result="effect1_innerShadow_154_32296"/>
</filter>
<filter id="filter2_f_154_32296" x="-43.125" y="33.5625" width="134.062" height="93.5625" filterUnits="userSpaceOnUse" color-interpolation-filters="sRGB">
<feFlood flood-opacity="0" result="BackgroundImageFix"/>
<feBlend mode="normal" in="SourceGraphic" in2="BackgroundImageFix" result="shape"/>
<feGaussianBlur stdDeviation="6" result="effect1_foregroundBlur_154_32296"/>
</filter>
<filter id="filter3_dddi_154_32296" x="-14.8164" y="-14.8154" width="77.6328" height="77.6309" filterUnits="userSpaceOnUse" color-interpolation-filters="sRGB">
<feFlood flood-opacity="0" result="BackgroundImageFix"/>
<feColorMatrix in="SourceAlpha" type="matrix" values="0 0 0 0 0 0 0 0 0 0 0 0 0 0 0 0 0 0 127 0" result="hardAlpha"/>
<feOffset/>
<feGaussianBlur stdDeviation="0.75"/>
<feComposite in2="hardAlpha" operator="out"/>
<feColorMatrix type="matrix" values="0 0 0 0 1 0 0 0 0 1 0 0 0 0 1 0 0 0 1 0"/>
<feBlend mode="plus-lighter" in2="BackgroundImageFix" result="effect1_dropShadow_154_32296"/>
<feColorMatrix in="SourceAlpha" type="matrix" values="0 0 0 0 0 0 0 0 0 0 0 0 0 0 0 0 0 0 127 0" result="hardAlpha"/>
<feOffset/>
<feGaussianBlur stdDeviation="3"/>
<feComposite in2="hardAlpha" operator="out"/>
<feColorMatrix type="matrix" values="0 0 0 0 1 0 0 0 0 0.471034 0 0 0 0 0.317082 0 0 0 1 0"/>
<feBlend mode="plus-lighter" in2="effect1_dropShadow_154_32296" result="effect2_dropShadow_154_32296"/>
<feColorMatrix in="SourceAlpha" type="matrix" values="0 0 0 0 0 0 0 0 0 0 0 0 0 0 0 0 0 0 127 0" result="hardAlpha"/>
<feOffset/>
<feGaussianBlur stdDeviation="12"/>
<feComposite in2="hardAlpha" operator="out"/>
<feColorMatrix type="matrix" values="0 0 0 0 1 0 0 0 0 0.47451 0 0 0 0 0.321569 0 0 0 1 0"/>
<feBlend mode="plus-lighter" in2="effect2_dropShadow_154_32296" result="effect3_dropShadow_154_32296"/>
<feBlend mode="normal" in="SourceGraphic" in2="effect3_dropShadow_154_32296" result="shape"/>
<feColorMatrix in="SourceAlpha" type="matrix" values="0 0 0 0 0 0 0 0 0 0 0 0 0 0 0 0 0 0 127 0" result="hardAlpha"/>
<feOffset/>
<feGaussianBlur stdDeviation="1.3125"/>
<feComposite in2="hardAlpha" operator="arithmetic" k2="-1" k3="1"/>
<feColorMatrix type="matrix" values="0 0 0 0 1 0 0 0 0 0.596765 0 0 0 0 0.379639 0 0 0 0.5 0"/>
<feBlend mode="plus-lighter" in2="shape" result="effect4_innerShadow_154_32296"/>
</filter>
<linearGradient id="paint0_linear_154_32296" x1="36.0938" y1="-20.0625" x2="8.71875" y2="59.3438" gradientUnits="userSpaceOnUse">
<stop stop-color="#25120E"/>
<stop offset="1" stop-color="#010103"/>
</linearGradient>
<linearGradient id="paint1_linear_154_32296" x1="24" y1="0.9375" x2="24" y2="47.0625" gradientUnits="userSpaceOnUse">
<stop stop-color="#010103"/>
<stop offset="1" stop-color="#25120E"/>
</linearGradient>
<clipPath id="clip0_154_32296">
<rect width="48" height="48" rx="11.25" fill="white"/>
</clipPath>
<clipPath id="clip1_154_32296">
<rect x="0.9375" y="0.9375" width="46.125" height="46.125" rx="10.3125" fill="white"/>
</clipPath>
</defs>
</svg>
